<?xml version="1.0" encoding="utf-8"?>
<!-- Generator: Adobe Illustrator 16.0.0, SVG Export Plug-In . SVG Version: 6.00 Build 0)  -->
<!DOCTYPE svg PUBLIC "-//W3C//DTD SVG 1.1//EN" "http://www.w3.org/Graphics/SVG/1.1/DTD/svg11.dtd">
<svg version="1.1" id="Layer_1" xmlns="http://www.w3.org/2000/svg" xmlns:xlink="http://www.w3.org/1999/xlink" x="0px" y="0px"
	 width="841.89px" height="1190.55px" viewBox="0 0 841.89 1190.55" enable-background="new 0 0 841.89 1190.55"
	 xml:space="preserve">
<rect fill="#F9A01B" stroke="#000000" stroke-miterlimit="10" width="841.89" height="1190.55"/>
<path fill="#FFFFFF" d="M230.205,278.73v-48.442h21.143v48.21c0,8.945,4.183,14.057,13.127,14.057
	c8.945,0,13.128-5.111,13.128-14.057v-48.21h21.142v48.442c0,21.26-14.521,31.715-34.27,31.715
	C244.727,310.445,230.205,299.99,230.205,278.73z"/>
<path fill="#FFFFFF" d="M608.604,346.916l-8.556,38.44l-19.39-4.315l17.39-78.129c0.151-0.682,0.618-1.172,1.639,0.126
	l39.535,50.693l8.606-38.668l19.39,4.315l-17.414,78.242c-0.202,0.908-0.617,1.172-1.637-0.126L608.604,346.916z"/>
<path fill="#FFFFFF" d="M180.999,431.065c0-23.815,19.633-40.427,42.403-40.427c22.769,0,42.4,16.611,42.4,40.427
	c0,23.814-19.632,40.543-42.4,40.543C200.632,471.608,180.999,454.88,180.999,431.065z M244.196,431.065
	c0-12.431-7.552-22.073-20.794-22.073c-13.244,0-20.795,9.643-20.795,22.073s7.551,22.188,20.795,22.188
	C236.645,453.254,244.196,443.496,244.196,431.065z"/>
<path fill="#FFFFFF" d="M432.971,467.634l-20.75-4.056l15.156-77.528l31.354,6.13c19.723,3.855,28.396,17.623,25.297,33.471
	c-2.006,10.261-8.49,17.4-18.55,19.812l10.705,30.619l-22.46-4.391l-8.936-26.959l-7.069-1.382L432.971,467.634z M450.395,429.375
	c7.068,1.381,11.521-1.418,12.77-7.803s-1.823-10.653-8.892-12.035l-9.578-1.872l-3.878,19.837L450.395,429.375z"/>
<path fill="#FFFFFF" d="M637.868,554.748h-15.684v-16.264h34.504v34.154c-7.319,6.041-16.844,10.919-34.386,10.919
	c-23.235,0-42.52-16.728-42.52-40.543c0-23.814,19.284-40.427,42.054-40.427c13.941,0,24.86,5.228,31.715,14.056l-14.753,12.779
	c-3.95-5.112-9.526-8.481-17.426-8.481c-12.896,0-19.981,9.644-19.981,22.073s7.202,22.769,21.143,22.769
	c7.666,0,11.966-1.51,15.334-3.136V554.748z"/>
<path fill="#FFFFFF" d="M303.546,621.142l-25.761-9.716l-7.059,7.521l-19.348-7.297L315.727,550
	c0.613-0.639,1.266-0.393,1.304,0.492l7.501,88.747l-20.436-7.707L303.546,621.142z M289.282,599.374l13.37,5.042l-0.837-18.193
	L289.282,599.374z"/>
<path fill="#FFFFFF" d="M436.725,644.889v39.381h-19.865V604.23c0-0.698,0.348-1.279,1.626-0.233l49.604,40.892v-39.613h19.865
	v80.158c0,0.928-0.35,1.277-1.627,0.23L436.725,644.889z"/>
<path fill="#FFFFFF" d="M590.433,682.375l21.113,1.085l-4.055,78.89l-21.113-1.085L590.433,682.375z"/>
<path fill="#FFFFFF" d="M710.084,766.564l22.044-65.907l-28.437,5.896l-3.609-17.404l60.175-12.477
	c0.682-0.142,0.957,0.04,0.578,1.066l-22.048,65.909l31.396-6.51l3.608,17.403l-63.131,13.089
	C709.978,767.772,709.704,767.592,710.084,766.564z"/>
<path fill="#FFFFFF" d="M416.206,786.981l55.309-3.426l1.099,17.741l-34.206,2.119l0.805,12.984l28.523-1.767l1.041,16.813
	l-28.523,1.767l0.841,13.563l35.828-2.219l1.1,17.741l-56.932,3.526L416.206,786.981z"/>
<path fill="#FFFFFF" d="M731.997,856.649l29.898,6.284c22.284,4.685,36.026,22.886,30.984,46.873
	c-5.042,23.988-24.949,35.116-47.232,30.433l-29.898-6.284L731.997,856.649z M747.054,922.254
	c12.506,2.629,21.98-4.045,24.681-16.892s-3.285-22.771-15.792-25.399l-6.935-1.458l-8.889,42.292L747.054,922.254z"/>
<rect x="359.89" y="1010" fill="none" width="506" height="456"/>
<text transform="matrix(1 0 0 1 359.8896 1029.5)"><tspan x="0" y="0" fill="#FFFFFF" font-family="'Mignon-Book'" font-size="26">Tell us what&apos;s the most frustrating thing  </tspan><tspan x="0" y="30" fill="#FFFFFF" font-family="'Mignon-Book'" font-size="26">about time management.</tspan><tspan x="0" y="66" fill="#FFFFFF" font-family="'Mignon-Book'" font-size="26">Let&apos;s design solutions together.</tspan><tspan x="0" y="102" fill="#FFFFFF" font-family="'Mignon-Book'" font-size="26">Join us now!</tspan></text>
<rect x="40" y="62" fill="none" width="766.11" height="168"/>
<text transform="matrix(1 0 0 1 40 139.5195)" fill="#FFFFFF" font-family="'NeutraDisp-Titling'" font-size="114" letter-spacing="5">organizing </text>
<rect x="54" y="198" fill="none" width="218" height="78"/>
<text transform="matrix(1 0 0 1 54 228)" fill="#FFFFFF" font-family="'Mignon-Italic'" font-size="40">for the </text>
<g>
	<path fill="#FFFFFF" d="M164.638,1073.16"/>
	<g>
		<path fill="#FFFFFF" d="M135.985,1086.355c-0.253,0-0.509-0.044-0.762-0.137l-28.735-10.458c-1.158-0.421-1.756-1.7-1.333-2.857
			c0.418-1.159,1.703-1.758,2.858-1.334l28.734,10.459c1.158,0.42,1.756,1.7,1.332,2.859
			C137.752,1085.792,136.896,1086.355,135.985,1086.355z"/>
	</g>
	<g>
		<path fill="#FFFFFF" d="M107.34,1075.845c-0.771,0-1.52-0.401-1.936-1.114l-21.422-37.108c-0.614-1.066-0.251-2.431,0.816-3.046
			c1.064-0.617,2.429-0.251,3.047,0.817l21.424,37.107c0.616,1.066,0.25,2.428-0.816,3.043
			C108.103,1075.749,107.717,1075.845,107.34,1075.845z"/>
	</g>
	<g>
		<path fill="#FFFFFF" d="M221.137,1075.439c-1.232,0-2.23-0.998-2.23-2.23v-42.458c0-1.229,0.998-2.229,2.23-2.229
			s2.23,1,2.23,2.229v42.458C223.367,1074.441,222.369,1075.439,221.137,1075.439z"/>
	</g>
	<g>
		<path fill="#FFFFFF" d="M221.463,1075.763c-0.77,0-1.52-0.4-1.934-1.118c-0.613-1.065-0.248-2.427,0.819-3.045l24.779-14.312
			c1.065-0.617,2.431-0.247,3.05,0.819c0.613,1.065,0.248,2.431-0.818,3.045l-24.78,14.311
			C222.226,1075.666,221.842,1075.763,221.463,1075.763z"/>
	</g>
	<path fill="#FFFFFF" d="M221.507,1009.602c-35.047,0-63.56,28.514-63.56,63.559c0,27.672-22.51,50.18-50.178,50.18
		c-27.672,0-50.18-22.508-50.18-50.18c0-27.666,22.508-50.177,50.18-50.177c18.507,0,34.695,10.081,43.394,25.032
		c1.754-4.89,4.001-9.551,6.688-13.914c-11.643-14.895-29.756-24.5-50.082-24.5c-35.048,0-63.561,28.514-63.561,63.559
		c0,35.048,28.513,63.562,63.561,63.562c35.047,0,63.559-28.514,63.559-63.562c0-27.666,22.51-50.177,50.179-50.177
		s50.179,22.511,50.179,50.177c0,27.672-22.51,50.18-50.179,50.18c-18.507,0-34.696-10.079-43.394-25.027
		c-1.756,4.891-4.004,9.55-6.691,13.911c11.644,14.896,29.758,24.498,50.085,24.498c35.048,0,63.56-28.514,63.56-63.562
		C285.066,1038.115,256.555,1009.602,221.507,1009.602z"/>
</g>
</svg>
