<?xml version="1.0" encoding="utf-8"?>
<!-- Generator: Adobe Illustrator 16.0.0, SVG Export Plug-In . SVG Version: 6.00 Build 0)  -->
<!DOCTYPE svg PUBLIC "-//W3C//DTD SVG 1.1//EN" "http://www.w3.org/Graphics/SVG/1.1/DTD/svg11.dtd">
<svg version="1.1" id="Layer_1" xmlns="http://www.w3.org/2000/svg" xmlns:xlink="http://www.w3.org/1999/xlink" x="0px" y="0px"
	 width="841.89px" height="1190.55px" viewBox="0 0 841.89 1190.55" enable-background="new 0 0 841.89 1190.55"
	 xml:space="preserve">
<rect fill="#F9A01B" stroke="#000000" stroke-miterlimit="10" width="841.89" height="1190.55"/>
<path fill="#FFFFFF" d="M230.205,278.73v-48.442h21.143v48.21c0,8.945,4.183,14.057,13.127,14.057
	c8.945,0,13.128-5.111,13.128-14.057v-48.21h21.142v48.442c0,21.26-14.521,31.715-34.27,31.715
	C244.727,310.445,230.205,299.99,230.205,278.73z"/>
<path fill="#FFFFFF" d="M608.604,346.916l-8.556,38.44l-19.39-4.315l17.39-78.129c0.151-0.682,0.618-1.172,1.639,0.126
	l39.535,50.693l8.606-38.668l19.39,4.315l-17.414,78.242c-0.202,0.908-0.617,1.172-1.637-0.126L608.604,346.916z"/>
<path fill="#FFFFFF" d="M180.999,431.065c0-23.815,19.633-40.427,42.403-40.427c22.769,0,42.4,16.611,42.4,40.427
	c0,23.814-19.632,40.543-42.4,40.543C200.632,471.608,180.999,454.88,180.999,431.065z M244.196,431.065
	c0-12.431-7.552-22.073-20.794-22.073c-13.244,0-20.795,9.643-20.795,22.073s7.551,22.188,20.795,22.188
	C236.645,453.254,244.196,443.496,244.196,431.065z"/>
<path fill="#FFFFFF" d="M432.971,467.634l-20.75-4.056l15.156-77.528l31.354,6.13c19.723,3.855,28.396,17.623,25.297,33.471
	c-2.006,10.261-8.49,17.4-18.55,19.812l10.705,30.619l-22.46-4.391l-8.936-26.959l-7.069-1.382L432.971,467.634z M450.395,429.375
	c7.068,1.381,11.521-1.418,12.77-7.803s-1.823-10.653-8.892-12.035l-9.578-1.872l-3.878,19.837L450.395,429.375z"/>
<path fill="#FFFFFF" d="M637.868,554.748h-15.684v-16.264h34.504v34.154c-7.319,6.041-16.844,10.919-34.386,10.919
	c-23.235,0-42.52-16.728-42.52-40.543c0-23.814,19.284-40.427,42.054-40.427c13.941,0,24.86,5.228,31.715,14.056l-14.753,12.779
	c-3.95-5.112-9.526-8.481-17.426-8.481c-12.896,0-19.981,9.644-19.981,22.073s7.202,22.769,21.143,22.769
	c7.666,0,11.966-1.51,15.334-3.136V554.748z"/>
<path fill="#FFFFFF" d="M303.546,621.142l-25.761-9.716l-7.059,7.521l-19.348-7.297L315.727,550
	c0.613-0.639,1.266-0.393,1.304,0.492l7.501,88.747l-20.436-7.707L303.546,621.142z M289.282,599.374l13.37,5.042l-0.837-18.193
	L289.282,599.374z"/>
<path fill="#FFFFFF" d="M436.725,644.889v39.381h-19.865V604.23c0-0.698,0.348-1.279,1.626-0.233l49.604,40.892v-39.613h19.865
	v80.158c0,0.928-0.35,1.277-1.627,0.23L436.725,644.889z"/>
<path fill="#FFFFFF" d="M590.433,682.375l21.113,1.085l-4.055,78.89l-21.113-1.085L590.433,682.375z"/>
<path fill="#FFFFFF" d="M710.084,766.564l22.044-65.907l-28.437,5.896l-3.609-17.404l60.175-12.477
	c0.682-0.142,0.957,0.04,0.578,1.066l-22.048,65.909l31.396-6.51l3.608,17.403l-63.131,13.089
	C709.978,767.772,709.704,767.592,710.084,766.564z"/>
<path fill="#FFFFFF" d="M416.206,786.981l55.309-3.426l1.099,17.741l-34.206,2.119l0.805,12.984l28.523-1.767l1.041,16.813
	l-28.523,1.767l0.841,13.563l35.828-2.219l1.1,17.741l-56.932,3.526L416.206,786.981z"/>
<path fill="#FFFFFF" d="M731.997,856.649l29.898,6.284c22.284,4.685,36.026,22.886,30.984,46.873
	c-5.042,23.988-24.949,35.116-47.232,30.433l-29.898-6.284L731.997,856.649z M747.054,922.254
	c12.506,2.629,21.98-4.045,24.681-16.892s-3.285-22.771-15.792-25.399l-6.935-1.458l-8.889,42.292L747.054,922.254z"/>
<g>
	<rect x="359.89" y="1010" fill="none" width="506" height="456"/>
	<path fill="#FFFFFF" d="M364.18,1012.443c-2.106,0-2.496,1.404-3.068,3.432l-0.779,0.026v-4.576l15.054-0.026l-0.493,4.551
		l-0.521-0.104c-0.624-2.366-0.962-3.354-3.302-3.354h-2.106v15.99l2.626,0.234v0.884h-7.644c-0.026-0.052-0.026-0.468-0.026-0.52
		c1.638,0,2.626-1.093,2.626-2.757v-13.78H364.18z"/>
	<path fill="#FFFFFF" d="M384.694,1021.596v0.858h-7.203c0,0.338-0.025,0.676-0.025,1.014c0,3.302,1.924,4.758,3.979,4.758
		c1.455,0,2.313-0.806,3.094-1.689l0.338,0.338c-1.3,2.132-2.86,2.912-4.784,2.912c-2.262,0-4.811-2.106-4.811-5.435
		c0-4.16,3.146-6.552,5.513-6.552S384.694,1019.646,384.694,1021.596z M377.596,1021.882l4.654-0.39
		c0.078-1.742-1.404-3.017-3.328-2.549C377.96,1019.802,377.83,1020.634,377.596,1021.882z"/>
	<path fill="#FFFFFF" d="M390.258,1028.355l2.288,0.234v0.91h-5.72v-0.52c0.728,0,1.456-0.547,1.456-1.612v-13.521
		c0-1.612-0.521-1.69-1.586-2.055v-0.494c1.455,0,2.678-0.676,3.562-1.3V1028.355z"/>
	<path fill="#FFFFFF" d="M397.693,1028.355l2.288,0.234v0.91h-5.72v-0.52c0.728,0,1.456-0.547,1.456-1.612v-13.521
		c0-1.612-0.521-1.69-1.586-2.055v-0.494c1.455,0,2.678-0.676,3.562-1.3V1028.355z"/>
	<path fill="#FFFFFF" d="M419.56,1028.59v0.676l-4.265,0.469v-2.704c-1.352,2.21-2.288,2.729-3.614,2.729
		c-2.548,0-4.056-1.897-4.03-4.186l0.026-3.979c0-1.638-0.52-2.184-1.586-2.6v-0.442c1.456,0,2.704-0.26,3.562-0.884v7.02
		c0,2.314,1.195,3.406,2.859,3.406c1.04,0,1.847-0.494,2.782-1.872v-4.628c0-1.638-0.494-2.184-1.56-2.6v-0.442
		c1.456,0,2.704-0.26,3.562-0.884v10.686L419.56,1028.59z"/>
	<path fill="#FFFFFF" d="M421.301,1025.729c0.208,0,0.676,0.026,0.884,0.026c0.936,2.184,1.638,3.38,3.979,3.276
		c0.779-0.416,1.144-1.118,1.144-1.82c0-1.04-0.52-1.69-1.378-2.054l-2.393-0.937c-1.092-0.416-2.054-1.534-2.054-2.86
		c0-2.548,2.21-3.562,3.822-3.562c1.404,0,2.652,0.416,3.302,0.936l-0.468,2.652h-0.598c-0.754-2.522-2.158-2.886-3.458-2.756
		c-0.599,0.26-0.91,0.857-0.91,1.403c0,1.015,0.598,1.898,1.716,2.314l1.976,0.702c1.118,0.416,2.393,1.274,2.393,3.068
		c0,1.976-2.002,3.666-4.212,3.666c-1.509,0-2.055-0.183-3.433-0.729L421.301,1025.729z"/>
	<path fill="#FFFFFF" d="M445.221,1018.164l3.432,8.45l2.08-7.28l-1.897-0.131v-0.909h4.939v0.52
		c-1.039,0.234-1.949,1.015-2.521,2.444l-2.393,8.269l-1.065,0.338l-3.771-8.814l-2.756,8.477l-1.118,0.338l-3.614-10.557
		l-1.689-0.13l0.025-0.884h5.59v0.571c-1.222,0-1.403,0.832-1.039,2.002l1.871,5.747l2.679-8.087L445.221,1018.164z"/>
	<path fill="#FFFFFF" d="M463.888,1022.428c0-1.326-1.04-2.782-2.99-2.782c-1.352,0-2.418,1.04-3.016,1.95v6.76l2.288,0.234v0.91
		h-5.721v-0.52c0.832,0,1.456-0.547,1.456-1.612v-12.923c0-1.638-0.572-2.21-1.611-2.626v-0.521c1.481,0,2.729-0.676,3.588-1.3
		v10.738c1.248-1.924,2.392-2.912,4.16-2.912c2.366,0,3.848,1.534,3.848,4.238v6.292l2.288,0.234v0.91h-5.72v-0.52
		c0.806,0,1.43-0.547,1.43-1.612V1022.428z"/>
	<path fill="#FFFFFF" d="M475.874,1023.39v-1.378c0-1.977-1.326-3.172-2.99-3.172c-0.286,0-0.598,0.13-0.936,0.208
		c-0.261,0.286-0.442,0.702-0.442,1.04c0,0.363,0.208,0.754,0.416,1.04v0.26l-1.898,0.988c-0.233-0.416-0.26-0.807-0.26-1.17
		c0-1.612,2.002-3.433,4.576-3.433c2.054,0,3.562,1.196,3.562,3.744l-0.026,5.46c0,0.807,0.494,1.326,1.066,1.326
		c0.416,0,0.728-0.052,1.117-0.416l0.339,0.391c-1.066,1.144-1.378,1.481-2.393,1.481c-1.065,0-2.08-0.728-2.132-2.105
		c-1.274,1.611-2.055,2.132-3.198,2.132c-1.664,0-2.99-1.3-2.99-3.042c0-0.676,0.208-1.326,0.416-1.639L475.874,1023.39z
		 M475.874,1026.796v-2.158l-3.952,0.572c-0.078,0.208-0.156,0.494-0.156,0.936c0,1.431,0.884,2.08,2.106,2.08
		C474.964,1028.174,475.64,1027.16,475.874,1026.796z"/>
	<path fill="#FFFFFF" d="M484.999,1014.211v3.875h3.484l-0.13,1.195h-3.354v7.125c0,1.273,0.677,1.819,1.769,1.819
		c0.494,0,1.222-0.052,1.69-0.598l0.338,0.364c-1.04,1.248-2.236,1.768-3.303,1.768c-1.768,0-2.521-1.195-2.521-2.756v-7.723h-1.924
		l-0.053-0.832c1.092-0.363,2.236-0.649,2.496-2.054l0.416-2.314L484.999,1014.211z"/>
	<path fill="#FFFFFF" d="M491.447,1011.014c1.17,0,2.158,0.779,2.158,2.365c0,1.509-0.832,3.641-2.938,4.707l-0.468-0.729
		c2.236-1.092,2.393-3.588,2.132-4.316c-0.312,0.494-0.701,0.65-1.195,0.65c-0.599,0-1.223-0.494-1.223-1.222
		C489.913,1011.663,490.537,1011.039,491.447,1011.014z"/>
	<path fill="#FFFFFF" d="M495.686,1025.729c0.208,0,0.676,0.026,0.884,0.026c0.936,2.184,1.638,3.38,3.979,3.276
		c0.779-0.416,1.144-1.118,1.144-1.82c0-1.04-0.52-1.69-1.378-2.054l-2.393-0.937c-1.092-0.416-2.054-1.534-2.054-2.86
		c0-2.548,2.21-3.562,3.822-3.562c1.404,0,2.652,0.416,3.302,0.936l-0.468,2.652h-0.598c-0.754-2.522-2.158-2.886-3.458-2.756
		c-0.599,0.26-0.91,0.857-0.91,1.403c0,1.015,0.598,1.898,1.716,2.314l1.976,0.702c1.118,0.416,2.393,1.274,2.393,3.068
		c0,1.976-2.002,3.666-4.212,3.666c-1.509,0-2.055-0.183-3.433-0.729L495.686,1025.729z"/>
	<path fill="#FFFFFF" d="M514.224,1014.211v3.875h3.483l-0.13,1.195h-3.354v7.125c0,1.273,0.676,1.819,1.768,1.819
		c0.494,0,1.222-0.052,1.69-0.598l0.338,0.364c-1.04,1.248-2.236,1.768-3.303,1.768c-1.768,0-2.521-1.195-2.521-2.756v-7.723h-1.925
		l-0.052-0.832c1.093-0.363,2.236-0.649,2.496-2.054l0.416-2.314L514.224,1014.211z"/>
	<path fill="#FFFFFF" d="M528.991,1022.428c0-1.326-1.04-2.782-2.99-2.782c-1.352,0-2.418,1.04-3.016,1.95v6.76l2.288,0.234v0.91
		h-5.721v-0.52c0.832,0,1.456-0.547,1.456-1.612v-12.923c0-1.638-0.572-2.21-1.611-2.626v-0.521c1.481,0,2.729-0.676,3.588-1.3
		v10.738c1.248-1.924,2.392-2.912,4.16-2.912c2.366,0,3.848,1.534,3.848,4.238v6.292l2.288,0.234v0.91h-5.72v-0.52
		c0.806,0,1.43-0.547,1.43-1.612V1022.428z"/>
	<path fill="#FFFFFF" d="M543.838,1021.596v0.858h-7.202c0,0.338-0.026,0.676-0.026,1.014c0,3.302,1.924,4.758,3.978,4.758
		c1.457,0,2.314-0.806,3.095-1.689l0.338,0.338c-1.3,2.132-2.86,2.912-4.784,2.912c-2.262,0-4.811-2.106-4.811-5.435
		c0-4.16,3.146-6.552,5.513-6.552S543.838,1019.646,543.838,1021.596z M536.739,1021.882l4.654-0.39
		c0.078-1.742-1.404-3.017-3.328-2.549C537.104,1019.802,536.974,1020.634,536.739,1021.882z"/>
	<path fill="#FFFFFF" d="M554.575,1020.712c1.223-1.925,2.418-2.912,4.16-2.912c2.028,0,3.354,1.092,3.719,3.094
		c1.378-2.158,2.573-3.094,4.342-3.094c2.392,0,3.848,1.534,3.848,4.264v6.292l2.263,0.234v0.91h-5.721v-0.52
		c0.807,0,1.456-0.547,1.456-1.612v-4.967c0-1.325-1.04-2.782-3.016-2.782c-0.988,0-2.418,1.093-3.068,2.055v6.682l2.262,0.234v0.91
		h-5.72v-0.52c0.832,0,1.456-0.547,1.456-1.612v-4.967c0-1.325-0.988-2.782-2.938-2.782c-1.378,0-2.418,1.041-3.016,1.977v6.76
		l2.262,0.234v0.91h-5.72v-0.52c0.884,0,1.456-0.547,1.456-1.612v-5.746c0-1.639-0.572-2.21-1.612-2.626v-0.521
		c1.482,0,2.73-0.182,3.588-0.806V1020.712z"/>
	<path fill="#FFFFFF" d="M580.081,1017.8c3.536,0,5.877,2.418,5.877,5.72c0,3.328-2.912,6.293-6.188,6.293
		c-3.406,0-5.721-2.496-5.721-5.98C574.049,1020.504,576.857,1017.8,580.081,1017.8z M583.825,1024.326
		c0-4.135-3.302-5.461-4.68-5.461c-0.442,0-1.04,0.104-1.456,0.286c-1.066,0.91-1.586,2.263-1.586,3.822
		c0,4.004,2.704,5.591,4.524,5.591c0.806,0,0.987,0,1.508-0.234C582.915,1027.602,583.825,1026.51,583.825,1024.326z"/>
	<path fill="#FFFFFF" d="M588.245,1025.729c0.208,0,0.676,0.026,0.884,0.026c0.937,2.184,1.638,3.38,3.979,3.276
		c0.779-0.416,1.144-1.118,1.144-1.82c0-1.04-0.52-1.69-1.378-2.054l-2.392-0.937c-1.093-0.416-2.055-1.534-2.055-2.86
		c0-2.548,2.21-3.562,3.822-3.562c1.404,0,2.652,0.416,3.302,0.936l-0.468,2.652h-0.598c-0.754-2.522-2.158-2.886-3.458-2.756
		c-0.599,0.26-0.91,0.857-0.91,1.403c0,1.015,0.598,1.898,1.716,2.314l1.977,0.702c1.117,0.416,2.392,1.274,2.392,3.068
		c0,1.976-2.002,3.666-4.212,3.666c-1.508,0-2.055-0.183-3.433-0.729L588.245,1025.729z"/>
	<path fill="#FFFFFF" d="M602.024,1014.211v3.875h3.484l-0.13,1.195h-3.354v7.125c0,1.273,0.677,1.819,1.769,1.819
		c0.494,0,1.222-0.052,1.69-0.598l0.338,0.364c-1.04,1.248-2.236,1.768-3.303,1.768c-1.768,0-2.521-1.195-2.521-2.756v-7.723h-1.924
		l-0.053-0.832c1.092-0.363,2.236-0.649,2.496-2.054l0.416-2.314L602.024,1014.211z"/>
	<path fill="#FFFFFF" d="M618.457,1028.59v0.91h-5.98v-0.52c0.832,0,1.456-0.547,1.456-1.612v-8.087h-1.586v-0.857
		c0.884-0.13,1.508-0.338,1.586-0.91c0.338-2.704,1.118-4.914,3.172-6.396c0.78-0.546,1.664-0.857,2.574-0.857
		c1.196,0,2.132,0.312,2.574,0.701l-0.546,2.938l-0.494-0.026c-0.416-1.872-1.794-2.651-3.433-2.418
		c-1.325,1.015-1.897,3.744-1.897,6.059v0.572h2.964v1.195h-2.938v9.074L618.457,1028.59z"/>
	<path fill="#FFFFFF" d="M628.207,1020.764h-0.521c-0.182-0.494-0.676-0.754-1.196-0.754c-0.884,0-1.481,0.598-2.105,1.56v6.761
		l2.521,0.26v0.91h-5.979c-0.026-0.052-0.026-0.416-0.026-0.468c0.78-0.052,1.456-0.624,1.456-1.664v-5.772
		c0-1.638-0.52-2.184-1.586-2.574v-0.468c1.482,0,2.73-0.286,3.614-0.91v3.068c0.857-1.847,1.664-2.938,2.912-2.938
		c0.702,0,1.273,0.13,1.586,0.286L628.207,1020.764z"/>
	<path fill="#FFFFFF" d="M643.599,1028.59v0.676l-4.265,0.469v-2.704c-1.352,2.21-2.288,2.729-3.614,2.729
		c-2.548,0-4.056-1.897-4.03-4.186l0.026-3.979c0-1.638-0.52-2.184-1.586-2.6v-0.442c1.456,0,2.704-0.26,3.562-0.884v7.02
		c0,2.314,1.195,3.406,2.859,3.406c1.04,0,1.847-0.494,2.782-1.872v-4.628c0-1.638-0.494-2.184-1.56-2.6v-0.442
		c1.456,0,2.704-0.26,3.562-0.884v10.686L643.599,1028.59z"/>
	<path fill="#FFFFFF" d="M645.34,1025.729c0.208,0,0.676,0.026,0.884,0.026c0.936,2.184,1.638,3.38,3.979,3.276
		c0.779-0.416,1.144-1.118,1.144-1.82c0-1.04-0.52-1.69-1.378-2.054l-2.393-0.937c-1.092-0.416-2.054-1.534-2.054-2.86
		c0-2.548,2.21-3.562,3.822-3.562c1.404,0,2.652,0.416,3.302,0.936l-0.468,2.652h-0.598c-0.754-2.522-2.158-2.886-3.458-2.756
		c-0.599,0.26-0.91,0.857-0.91,1.403c0,1.015,0.598,1.898,1.716,2.314l1.976,0.702c1.118,0.416,2.393,1.274,2.393,3.068
		c0,1.976-2.002,3.666-4.212,3.666c-1.509,0-2.055-0.183-3.433-0.729L645.34,1025.729z"/>
	<path fill="#FFFFFF" d="M659.12,1014.211v3.875h3.483l-0.13,1.195h-3.354v7.125c0,1.273,0.676,1.819,1.768,1.819
		c0.494,0,1.222-0.052,1.69-0.598l0.338,0.364c-1.04,1.248-2.236,1.768-3.303,1.768c-1.768,0-2.521-1.195-2.521-2.756v-7.723h-1.925
		l-0.052-0.832c1.093-0.363,2.236-0.649,2.496-2.054l0.416-2.314L659.12,1014.211z"/>
	<path fill="#FFFFFF" d="M672.12,1020.764H671.6c-0.182-0.494-0.676-0.754-1.196-0.754c-0.884,0-1.481,0.598-2.105,1.56v6.761
		l2.521,0.26v0.91h-5.979c-0.026-0.052-0.026-0.416-0.026-0.468c0.78-0.052,1.456-0.624,1.456-1.664v-5.772
		c0-1.638-0.521-2.184-1.586-2.574v-0.468c1.481,0,2.729-0.286,3.614-0.91v3.068c0.857-1.847,1.664-2.938,2.912-2.938
		c0.702,0,1.273,0.13,1.586,0.286L672.12,1020.764z"/>
	<path fill="#FFFFFF" d="M680.699,1023.39v-1.378c0-1.977-1.326-3.172-2.99-3.172c-0.286,0-0.598,0.13-0.937,0.208
		c-0.26,0.286-0.441,0.702-0.441,1.04c0,0.363,0.208,0.754,0.416,1.04v0.26l-1.898,0.988c-0.233-0.416-0.26-0.807-0.26-1.17
		c0-1.612,2.002-3.433,4.576-3.433c2.054,0,3.562,1.196,3.562,3.744l-0.026,5.46c0,0.807,0.494,1.326,1.066,1.326
		c0.416,0,0.728-0.052,1.118-0.416l0.338,0.391c-1.066,1.144-1.379,1.481-2.393,1.481c-1.066,0-2.08-0.728-2.132-2.105
		c-1.274,1.611-2.054,2.132-3.198,2.132c-1.664,0-2.99-1.3-2.99-3.042c0-0.676,0.208-1.326,0.416-1.639L680.699,1023.39z
		 M680.699,1026.796v-2.158l-3.952,0.572c-0.078,0.208-0.156,0.494-0.156,0.936c0,1.431,0.884,2.08,2.106,2.08
		C679.789,1028.174,680.465,1027.16,680.699,1026.796z"/>
	<path fill="#FFFFFF" d="M689.825,1014.211v3.875h3.483l-0.13,1.195h-3.354v7.125c0,1.273,0.676,1.819,1.768,1.819
		c0.494,0,1.222-0.052,1.69-0.598l0.338,0.364c-1.04,1.248-2.236,1.768-3.303,1.768c-1.768,0-2.521-1.195-2.521-2.756v-7.723h-1.925
		l-0.052-0.832c1.093-0.363,2.236-0.649,2.496-2.054l0.416-2.314L689.825,1014.211z"/>
	<path fill="#FFFFFF" d="M698.977,1028.355l2.288,0.234v0.91h-5.72v-0.52c0.779,0,1.456-0.547,1.456-1.612v-5.746
		c0-1.639-0.572-2.21-1.612-2.626v-0.521c1.481,0,2.729-0.182,3.588-0.806V1028.355z M697.885,1011.014
		c0.936,0,1.664,0.728,1.664,1.664c0,0.91-0.729,1.611-1.664,1.611c-0.91,0-1.612-0.701-1.612-1.611
		C696.272,1011.741,696.975,1011.014,697.885,1011.014z"/>
	<path fill="#FFFFFF" d="M712.886,1022.428c0-1.326-1.039-2.782-2.989-2.782c-1.353,0-2.419,1.04-3.017,1.95v6.76l2.288,0.234v0.91
		h-5.72v-0.52c0.832,0,1.456-0.547,1.456-1.612v-5.746c0-1.639-0.572-2.21-1.612-2.626v-0.521c1.482,0,2.73-0.182,3.588-0.806v3.067
		c1.248-1.924,2.393-2.912,4.16-2.912c2.366,0,3.849,1.534,3.849,4.238v6.292l2.288,0.234v0.91h-5.721v-0.52
		c0.807,0,1.43-0.547,1.43-1.612V1022.428z"/>
	<path fill="#FFFFFF" d="M730.072,1018.189c-0.078,0.312-0.104,0.91-0.183,1.196h-2.703c0.598,0.754,0.857,1.3,0.857,2.262
		c0,3.198-2.938,4.316-5.564,4.212c-0.468,0.261-0.832,0.469-0.832,0.858c0,0.442,0.131,1.118,1.82,1.222l3.172,0.183
		c2.314,0.13,3.276,1.43,3.276,2.522c0,1.819-1.456,3.067-2.808,3.848c-1.482,0.858-2.704,1.274-3.9,1.274
		c-2.938,0-4.576-1.509-4.576-3.328c0-0.755,0.13-1.066,0.441-1.612l2.289-1.456c-1.509-0.286-2.133-1.482-1.847-2.834l2.236-0.807
		c-1.3-0.493-2.756-1.611-2.756-3.458c0-3.042,2.756-4.472,4.81-4.472c0.729,0,1.769,0.182,2.263,0.39H730.072z M727.836,1031.814
		c0-1.196-0.494-1.925-1.924-2.002l-3.874-0.261c-0.962,0.521-1.456,1.404-1.456,2.158c0,1.742,1.689,2.782,3.562,2.782
		c1.482,0,2.158-0.234,3.095-0.832C727.576,1033.244,727.836,1032.672,727.836,1031.814z M725.99,1022.142
		c0-2.106-1.248-3.588-3.38-3.536c-1.118,0.521-1.534,1.586-1.534,2.86c0,1.742,1.248,3.771,3.64,3.536
		C725.574,1024.534,725.99,1023.441,725.99,1022.142z"/>
	<path fill="#FFFFFF" d="M739.978,1014.211v3.875h3.483l-0.13,1.195h-3.354v7.125c0,1.273,0.676,1.819,1.768,1.819
		c0.494,0,1.222-0.052,1.69-0.598l0.338,0.364c-1.04,1.248-2.236,1.768-3.303,1.768c-1.768,0-2.521-1.195-2.521-2.756v-7.723h-1.925
		l-0.052-0.832c1.093-0.363,2.236-0.649,2.496-2.054l0.416-2.314L739.978,1014.211z"/>
	<path fill="#FFFFFF" d="M754.745,1022.428c0-1.326-1.04-2.782-2.99-2.782c-1.352,0-2.418,1.04-3.016,1.95v6.76l2.288,0.234v0.91
		h-5.721v-0.52c0.832,0,1.456-0.547,1.456-1.612v-12.923c0-1.638-0.572-2.21-1.611-2.626v-0.521c1.481,0,2.729-0.676,3.588-1.3
		v10.738c1.248-1.924,2.392-2.912,4.16-2.912c2.366,0,3.848,1.534,3.848,4.238v6.292l2.288,0.234v0.91h-5.72v-0.52
		c0.806,0,1.43-0.547,1.43-1.612V1022.428z"/>
	<path fill="#FFFFFF" d="M764.287,1028.355l2.288,0.234v0.91h-5.72v-0.52c0.779,0,1.456-0.547,1.456-1.612v-5.746
		c0-1.639-0.572-2.21-1.612-2.626v-0.521c1.481,0,2.729-0.182,3.588-0.806V1028.355z M763.195,1011.014
		c0.936,0,1.664,0.728,1.664,1.664c0,0.91-0.729,1.611-1.664,1.611c-0.91,0-1.612-0.701-1.612-1.611
		C761.583,1011.741,762.285,1011.014,763.195,1011.014z"/>
	<path fill="#FFFFFF" d="M778.196,1022.428c0-1.326-1.039-2.782-2.989-2.782c-1.353,0-2.419,1.04-3.017,1.95v6.76l2.288,0.234v0.91
		h-5.72v-0.52c0.832,0,1.456-0.547,1.456-1.612v-5.746c0-1.639-0.572-2.21-1.612-2.626v-0.521c1.482,0,2.73-0.182,3.588-0.806v3.067
		c1.248-1.924,2.393-2.912,4.16-2.912c2.366,0,3.849,1.534,3.849,4.238v6.292l2.288,0.234v0.91h-5.721v-0.52
		c0.807,0,1.43-0.547,1.43-1.612V1022.428z"/>
	<path fill="#FFFFFF" d="M795.383,1018.189c-0.078,0.312-0.104,0.91-0.183,1.196h-2.703c0.598,0.754,0.857,1.3,0.857,2.262
		c0,3.198-2.938,4.316-5.564,4.212c-0.468,0.261-0.832,0.469-0.832,0.858c0,0.442,0.131,1.118,1.82,1.222l3.172,0.183
		c2.314,0.13,3.276,1.43,3.276,2.522c0,1.819-1.456,3.067-2.808,3.848c-1.482,0.858-2.704,1.274-3.9,1.274
		c-2.938,0-4.576-1.509-4.576-3.328c0-0.755,0.13-1.066,0.441-1.612l2.289-1.456c-1.509-0.286-2.133-1.482-1.847-2.834l2.236-0.807
		c-1.3-0.493-2.756-1.611-2.756-3.458c0-3.042,2.756-4.472,4.81-4.472c0.729,0,1.769,0.182,2.263,0.39H795.383z M793.146,1031.814
		c0-1.196-0.494-1.925-1.924-2.002l-3.874-0.261c-0.962,0.521-1.456,1.404-1.456,2.158c0,1.742,1.689,2.782,3.562,2.782
		c1.482,0,2.158-0.234,3.095-0.832C792.887,1033.244,793.146,1032.672,793.146,1031.814z M791.301,1022.142
		c0-2.106-1.248-3.588-3.38-3.536c-1.118,0.521-1.534,1.586-1.534,2.86c0,1.742,1.248,3.771,3.64,3.536
		C790.885,1024.534,791.301,1023.441,791.301,1022.142z"/>
	<path fill="#FFFFFF" d="M367.248,1053.39v-1.378c0-1.977-1.326-3.172-2.99-3.172c-0.286,0-0.598,0.13-0.937,0.208
		c-0.26,0.286-0.441,0.702-0.441,1.04c0,0.363,0.208,0.754,0.416,1.04v0.26l-1.898,0.988c-0.233-0.416-0.26-0.807-0.26-1.17
		c0-1.612,2.002-3.433,4.576-3.433c2.054,0,3.562,1.196,3.562,3.744l-0.026,5.46c0,0.807,0.494,1.326,1.066,1.326
		c0.416,0,0.728-0.052,1.118-0.416l0.338,0.391c-1.066,1.144-1.379,1.481-2.393,1.481c-1.066,0-2.08-0.728-2.132-2.105
		c-1.274,1.611-2.054,2.132-3.198,2.132c-1.664,0-2.99-1.3-2.99-3.042c0-0.676,0.208-1.326,0.416-1.639L367.248,1053.39z
		 M367.248,1056.796v-2.158l-3.952,0.572c-0.078,0.208-0.156,0.494-0.156,0.936c0,1.431,0.884,2.08,2.106,2.08
		C366.338,1058.174,367.014,1057.16,367.248,1056.796z"/>
	<path fill="#FFFFFF" d="M376.426,1050.191c0.91-1.481,2.521-2.392,4.342-2.392c2.132,0,4.732,1.924,4.732,5.122
		c0,3.952-3.484,6.864-6.916,6.864c-1.717,0-2.522-0.468-2.965-0.729l-0.832,0.729l-0.468-0.234
		c0.052-0.571,0.104-1.014,0.104-2.235v-12.949c0-1.638-0.521-2.184-1.587-2.574v-0.494c1.457,0,2.73-0.676,3.589-1.3V1050.191z
		 M376.426,1051.05v6.11c0.91,1.456,3.224,1.742,4.966,1.273c1.092-0.806,2.106-2.027,2.106-4.315c0-3.017-2.08-4.603-4.135-4.603
		C378.193,1049.516,377.102,1050.088,376.426,1051.05z"/>
	<path fill="#FFFFFF" d="M393.221,1047.8c3.536,0,5.877,2.418,5.877,5.72c0,3.328-2.912,6.293-6.188,6.293
		c-3.406,0-5.721-2.496-5.721-5.98C387.188,1050.504,389.997,1047.8,393.221,1047.8z M396.965,1054.326
		c0-4.135-3.302-5.461-4.68-5.461c-0.442,0-1.04,0.104-1.456,0.286c-1.066,0.91-1.586,2.263-1.586,3.822
		c0,4.004,2.704,5.591,4.523,5.591c0.807,0,0.988,0,1.509-0.234C396.056,1057.602,396.965,1056.51,396.965,1054.326z"/>
	<path fill="#FFFFFF" d="M414.151,1058.59v0.676l-4.265,0.469v-2.704c-1.352,2.21-2.288,2.729-3.614,2.729
		c-2.548,0-4.056-1.897-4.03-4.186l0.026-3.979c0-1.638-0.52-2.184-1.586-2.6v-0.442c1.456,0,2.704-0.26,3.562-0.884v7.02
		c0,2.314,1.195,3.406,2.859,3.406c1.04,0,1.847-0.494,2.782-1.872v-4.628c0-1.638-0.494-2.184-1.56-2.6v-0.442
		c1.456,0,2.704-0.26,3.562-0.884v10.686L414.151,1058.59z"/>
	<path fill="#FFFFFF" d="M418.96,1044.211v3.875h3.484l-0.13,1.195h-3.354v7.125c0,1.273,0.677,1.819,1.769,1.819
		c0.494,0,1.222-0.052,1.69-0.598l0.338,0.364c-1.04,1.248-2.236,1.768-3.303,1.768c-1.768,0-2.521-1.195-2.521-2.756v-7.723h-1.924
		l-0.053-0.832c1.092-0.363,2.236-0.649,2.496-2.054l0.416-2.314L418.96,1044.211z"/>
	<path fill="#FFFFFF" d="M432.429,1044.211v3.875h3.483l-0.13,1.195h-3.354v7.125c0,1.273,0.676,1.819,1.768,1.819
		c0.494,0,1.222-0.052,1.69-0.598l0.338,0.364c-1.04,1.248-2.236,1.768-3.303,1.768c-1.768,0-2.521-1.195-2.521-2.756v-7.723h-1.925
		l-0.052-0.832c1.093-0.363,2.236-0.649,2.496-2.054l0.416-2.314L432.429,1044.211z"/>
	<path fill="#FFFFFF" d="M441.58,1058.355l2.288,0.234v0.91h-5.72v-0.52c0.779,0,1.456-0.547,1.456-1.612v-5.746
		c0-1.639-0.572-2.21-1.612-2.626v-0.521c1.481,0,2.729-0.182,3.588-0.806V1058.355z M440.488,1041.014
		c0.936,0,1.664,0.728,1.664,1.664c0,0.91-0.729,1.611-1.664,1.611c-0.91,0-1.612-0.701-1.612-1.611
		C438.876,1041.741,439.578,1041.014,440.488,1041.014z"/>
	<path fill="#FFFFFF" d="M449.483,1050.712c1.223-1.925,2.418-2.912,4.16-2.912c2.028,0,3.354,1.092,3.719,3.094
		c1.378-2.158,2.573-3.094,4.342-3.094c2.392,0,3.848,1.534,3.848,4.264v6.292l2.263,0.234v0.91h-5.721v-0.52
		c0.807,0,1.456-0.547,1.456-1.612v-4.967c0-1.325-1.04-2.782-3.016-2.782c-0.988,0-2.418,1.093-3.068,2.055v6.682l2.262,0.234v0.91
		h-5.72v-0.52c0.832,0,1.456-0.547,1.456-1.612v-4.967c0-1.325-0.988-2.782-2.938-2.782c-1.378,0-2.418,1.041-3.016,1.977v6.76
		l2.262,0.234v0.91h-5.72v-0.52c0.884,0,1.456-0.547,1.456-1.612v-5.746c0-1.639-0.572-2.21-1.612-2.626v-0.521
		c1.482,0,2.73-0.182,3.588-0.806V1050.712z"/>
	<path fill="#FFFFFF" d="M478.37,1051.596v0.858h-7.203c0,0.338-0.025,0.676-0.025,1.014c0,3.302,1.924,4.758,3.979,4.758
		c1.455,0,2.313-0.806,3.094-1.689l0.338,0.338c-1.3,2.132-2.86,2.912-4.784,2.912c-2.262,0-4.811-2.106-4.811-5.435
		c0-4.16,3.146-6.552,5.513-6.552S478.37,1049.646,478.37,1051.596z M471.271,1051.882l4.654-0.39
		c0.078-1.742-1.404-3.017-3.328-2.549C471.636,1049.802,471.506,1050.634,471.271,1051.882z"/>
	<path fill="#FFFFFF" d="M489.107,1050.712c1.222-1.925,2.418-2.912,4.16-2.912c2.028,0,3.354,1.092,3.718,3.094
		c1.379-2.158,2.574-3.094,4.343-3.094c2.392,0,3.848,1.534,3.848,4.264v6.292l2.263,0.234v0.91h-5.721v-0.52
		c0.807,0,1.456-0.547,1.456-1.612v-4.967c0-1.325-1.04-2.782-3.016-2.782c-0.988,0-2.418,1.093-3.068,2.055v6.682l2.262,0.234v0.91
		h-5.72v-0.52c0.832,0,1.456-0.547,1.456-1.612v-4.967c0-1.325-0.988-2.782-2.938-2.782c-1.378,0-2.418,1.041-3.016,1.977v6.76
		l2.262,0.234v0.91h-5.72v-0.52c0.884,0,1.456-0.547,1.456-1.612v-5.746c0-1.639-0.572-2.21-1.612-2.626v-0.521
		c1.481,0,2.729-0.182,3.588-0.806V1050.712z"/>
	<path fill="#FFFFFF" d="M515.134,1053.39v-1.378c0-1.977-1.326-3.172-2.99-3.172c-0.286,0-0.598,0.13-0.936,0.208
		c-0.261,0.286-0.442,0.702-0.442,1.04c0,0.363,0.208,0.754,0.416,1.04v0.26l-1.898,0.988c-0.233-0.416-0.26-0.807-0.26-1.17
		c0-1.612,2.002-3.433,4.576-3.433c2.054,0,3.562,1.196,3.562,3.744l-0.026,5.46c0,0.807,0.494,1.326,1.066,1.326
		c0.416,0,0.728-0.052,1.117-0.416l0.339,0.391c-1.066,1.144-1.378,1.481-2.393,1.481c-1.065,0-2.08-0.728-2.132-2.105
		c-1.274,1.611-2.055,2.132-3.198,2.132c-1.664,0-2.99-1.3-2.99-3.042c0-0.676,0.208-1.326,0.416-1.639L515.134,1053.39z
		 M515.134,1056.796v-2.158l-3.952,0.572c-0.078,0.208-0.156,0.494-0.156,0.936c0,1.431,0.884,2.08,2.106,2.08
		C514.224,1058.174,514.899,1057.16,515.134,1056.796z"/>
	<path fill="#FFFFFF" d="M530.708,1052.428c0-1.326-1.041-2.782-2.99-2.782c-1.353,0-2.418,1.04-3.017,1.95v6.76l2.288,0.234v0.91
		h-5.72v-0.52c0.832,0,1.456-0.547,1.456-1.612v-5.746c0-1.639-0.572-2.21-1.612-2.626v-0.521c1.481,0,2.729-0.182,3.588-0.806
		v3.067c1.248-1.924,2.393-2.912,4.16-2.912c2.366,0,3.849,1.534,3.849,4.238v6.292l2.288,0.234v0.91h-5.721v-0.52
		c0.806,0,1.431-0.547,1.431-1.612V1052.428z"/>
	<path fill="#FFFFFF" d="M542.693,1053.39v-1.378c0-1.977-1.326-3.172-2.99-3.172c-0.286,0-0.598,0.13-0.937,0.208
		c-0.26,0.286-0.441,0.702-0.441,1.04c0,0.363,0.208,0.754,0.416,1.04v0.26l-1.898,0.988c-0.233-0.416-0.26-0.807-0.26-1.17
		c0-1.612,2.002-3.433,4.576-3.433c2.054,0,3.562,1.196,3.562,3.744l-0.026,5.46c0,0.807,0.494,1.326,1.066,1.326
		c0.416,0,0.728-0.052,1.118-0.416l0.338,0.391c-1.066,1.144-1.379,1.481-2.393,1.481c-1.066,0-2.08-0.728-2.132-2.105
		c-1.274,1.611-2.054,2.132-3.198,2.132c-1.664,0-2.99-1.3-2.99-3.042c0-0.676,0.208-1.326,0.416-1.639L542.693,1053.39z
		 M542.693,1056.796v-2.158l-3.952,0.572c-0.078,0.208-0.156,0.494-0.156,0.936c0,1.431,0.884,2.08,2.106,2.08
		C541.783,1058.174,542.459,1057.16,542.693,1056.796z"/>
	<path fill="#FFFFFF" d="M559.905,1048.189c-0.078,0.312-0.104,0.91-0.182,1.196h-2.705c0.599,0.754,0.858,1.3,0.858,2.262
		c0,3.198-2.938,4.316-5.564,4.212c-0.468,0.261-0.832,0.469-0.832,0.858c0,0.442,0.13,1.118,1.82,1.222l3.172,0.183
		c2.314,0.13,3.276,1.43,3.276,2.522c0,1.819-1.456,3.067-2.808,3.848c-1.482,0.858-2.704,1.274-3.9,1.274
		c-2.938,0-4.576-1.509-4.576-3.328c0-0.755,0.13-1.066,0.442-1.612l2.287-1.456c-1.508-0.286-2.132-1.482-1.846-2.834l2.236-0.807
		c-1.3-0.493-2.756-1.611-2.756-3.458c0-3.042,2.756-4.472,4.81-4.472c0.729,0,1.769,0.182,2.263,0.39H559.905z M557.669,1061.814
		c0-1.196-0.494-1.925-1.924-2.002l-3.874-0.261c-0.962,0.521-1.456,1.404-1.456,2.158c0,1.742,1.689,2.782,3.562,2.782
		c1.482,0,2.158-0.234,3.095-0.832C557.409,1063.244,557.669,1062.672,557.669,1061.814z M555.823,1052.142
		c0-2.106-1.248-3.588-3.381-3.536c-1.117,0.521-1.533,1.586-1.533,2.86c0,1.742,1.248,3.771,3.64,3.536
		C555.407,1054.534,555.823,1053.441,555.823,1052.142z"/>
	<path fill="#FFFFFF" d="M570.799,1051.596v0.858h-7.202c0,0.338-0.026,0.676-0.026,1.014c0,3.302,1.924,4.758,3.978,4.758
		c1.457,0,2.314-0.806,3.095-1.689l0.338,0.338c-1.3,2.132-2.86,2.912-4.784,2.912c-2.262,0-4.811-2.106-4.811-5.435
		c0-4.16,3.146-6.552,5.513-6.552S570.799,1049.646,570.799,1051.596z M563.7,1051.882l4.654-0.39
		c0.078-1.742-1.404-3.017-3.328-2.549C564.064,1049.802,563.935,1050.634,563.7,1051.882z"/>
	<path fill="#FFFFFF" d="M576.778,1050.712c1.223-1.925,2.418-2.912,4.16-2.912c2.028,0,3.354,1.092,3.719,3.094
		c1.378-2.158,2.573-3.094,4.342-3.094c2.392,0,3.848,1.534,3.848,4.264v6.292l2.263,0.234v0.91h-5.721v-0.52
		c0.807,0,1.456-0.547,1.456-1.612v-4.967c0-1.325-1.04-2.782-3.016-2.782c-0.988,0-2.418,1.093-3.068,2.055v6.682l2.262,0.234v0.91
		h-5.72v-0.52c0.832,0,1.456-0.547,1.456-1.612v-4.967c0-1.325-0.988-2.782-2.938-2.782c-1.378,0-2.418,1.041-3.016,1.977v6.76
		l2.262,0.234v0.91h-5.72v-0.52c0.884,0,1.456-0.547,1.456-1.612v-5.746c0-1.639-0.572-2.21-1.612-2.626v-0.521
		c1.482,0,2.73-0.182,3.588-0.806V1050.712z"/>
	<path fill="#FFFFFF" d="M605.665,1051.596v0.858h-7.203c0,0.338-0.025,0.676-0.025,1.014c0,3.302,1.924,4.758,3.979,4.758
		c1.455,0,2.313-0.806,3.094-1.689l0.338,0.338c-1.3,2.132-2.86,2.912-4.784,2.912c-2.262,0-4.811-2.106-4.811-5.435
		c0-4.16,3.146-6.552,5.513-6.552S605.665,1049.646,605.665,1051.596z M598.566,1051.882l4.654-0.39
		c0.078-1.742-1.404-3.017-3.328-2.549C598.931,1049.802,598.801,1050.634,598.566,1051.882z"/>
	<path fill="#FFFFFF" d="M617.651,1052.428c0-1.326-1.041-2.782-2.99-2.782c-1.353,0-2.418,1.04-3.017,1.95v6.76l2.288,0.234v0.91
		h-5.72v-0.52c0.832,0,1.456-0.547,1.456-1.612v-5.746c0-1.639-0.572-2.21-1.612-2.626v-0.521c1.481,0,2.729-0.182,3.588-0.806
		v3.067c1.248-1.924,2.393-2.912,4.16-2.912c2.366,0,3.849,1.534,3.849,4.238v6.292l2.288,0.234v0.91h-5.721v-0.52
		c0.806,0,1.431-0.547,1.431-1.612V1052.428z"/>
	<path fill="#FFFFFF" d="M626.751,1044.211v3.875h3.483l-0.13,1.195h-3.354v7.125c0,1.273,0.676,1.819,1.768,1.819
		c0.494,0,1.222-0.052,1.69-0.598l0.338,0.364c-1.04,1.248-2.236,1.768-3.303,1.768c-1.768,0-2.521-1.195-2.521-2.756v-7.723h-1.925
		l-0.052-0.832c1.093-0.363,2.236-0.649,2.496-2.054l0.416-2.314L626.751,1044.211z"/>
	<path fill="#FFFFFF" d="M634.238,1056.25c0.937,0,1.664,0.728,1.664,1.664c0,0.91-0.728,1.612-1.664,1.612
		c-0.91,0-1.612-0.702-1.612-1.612C632.626,1056.978,633.328,1056.25,634.238,1056.25z"/>
	<path fill="#FFFFFF" d="M361.138,1077.299h7.826l0.026,0.521c-1.274,0-2.912,0.702-2.912,3.12v13.234
		c0.91,0.26,1.976,0.391,3.198,0.391c2.808,0,4.264-2.887,4.445-4.524l0.677,0.155l-0.807,5.305h-12.454
		c-0.026-0.052,0-0.468,0-0.52c1.586,0,2.678-1.118,2.678-2.782v-13.781l-2.678-0.233V1077.299z"/>
	<path fill="#FFFFFF" d="M384.616,1087.596v0.858h-7.203c0,0.338-0.025,0.676-0.025,1.014c0,3.302,1.924,4.758,3.979,4.758
		c1.455,0,2.313-0.806,3.094-1.689l0.338,0.338c-1.3,2.132-2.86,2.912-4.784,2.912c-2.262,0-4.811-2.106-4.811-5.435
		c0-4.16,3.146-6.552,5.513-6.552S384.616,1085.646,384.616,1087.596z M377.518,1087.882l4.654-0.39
		c0.078-1.742-1.404-3.017-3.328-2.549C377.882,1085.802,377.752,1086.634,377.518,1087.882z"/>
	<path fill="#FFFFFF" d="M390.153,1080.211v3.875h3.484l-0.13,1.195h-3.354v7.125c0,1.273,0.677,1.819,1.769,1.819
		c0.494,0,1.222-0.052,1.69-0.598l0.338,0.364c-1.04,1.248-2.236,1.768-3.303,1.768c-1.768,0-2.521-1.195-2.521-2.756v-7.723h-1.924
		l-0.053-0.832c1.092-0.363,2.236-0.649,2.496-2.054l0.416-2.314L390.153,1080.211z"/>
	<path fill="#FFFFFF" d="M396.602,1077.014c1.17,0,2.158,0.779,2.158,2.365c0,1.509-0.832,3.641-2.938,4.707l-0.468-0.729
		c2.236-1.092,2.393-3.588,2.132-4.316c-0.312,0.494-0.701,0.65-1.195,0.65c-0.599,0-1.223-0.494-1.223-1.222
		C395.067,1077.663,395.691,1077.039,396.602,1077.014z"/>
	<path fill="#FFFFFF" d="M400.84,1091.729c0.208,0,0.676,0.026,0.884,0.026c0.936,2.184,1.638,3.38,3.979,3.276
		c0.779-0.416,1.144-1.118,1.144-1.82c0-1.04-0.52-1.69-1.378-2.054l-2.393-0.937c-1.092-0.416-2.054-1.534-2.054-2.86
		c0-2.548,2.21-3.562,3.822-3.562c1.404,0,2.652,0.416,3.302,0.936l-0.468,2.652h-0.598c-0.754-2.522-2.158-2.886-3.458-2.756
		c-0.599,0.26-0.91,0.857-0.91,1.403c0,1.015,0.598,1.898,1.716,2.314l1.976,0.702c1.118,0.416,2.393,1.274,2.393,3.068
		c0,1.976-2.002,3.666-4.212,3.666c-1.509,0-2.055-0.183-3.433-0.729L400.84,1091.729z"/>
	<path fill="#FFFFFF" d="M428.946,1094.59v0.572l-4.316,0.598v-2.262c-1.456,1.534-2.522,2.262-3.9,2.262
		c-2.782,0-5.019-2.288-5.019-5.512c0-3.744,3.381-6.448,6.839-6.448c1.248,0,1.508,0.286,2.08,0.39v-3.848
		c0-1.639-0.521-2.185-1.586-2.549v-0.494c1.456,0,2.678-0.676,3.562-1.3v18.356L428.946,1094.59z M424.63,1092.796v-6.162
		c-1.118-1.534-2.912-2.132-5.019-1.482c-1.3,0.988-1.846,2.471-1.846,3.849c0,3.77,2.418,5.07,4.29,5.07
		C423.355,1094.07,423.954,1093.472,424.63,1092.796z"/>
	<path fill="#FFFFFF" d="M439.502,1087.596v0.858H432.3c0,0.338-0.026,0.676-0.026,1.014c0,3.302,1.924,4.758,3.978,4.758
		c1.457,0,2.314-0.806,3.095-1.689l0.338,0.338c-1.3,2.132-2.86,2.912-4.784,2.912c-2.262,0-4.811-2.106-4.811-5.435
		c0-4.16,3.146-6.552,5.513-6.552S439.502,1085.646,439.502,1087.596z M432.403,1087.882l4.654-0.39
		c0.078-1.742-1.404-3.017-3.328-2.549C432.768,1085.802,432.638,1086.634,432.403,1087.882z"/>
	<path fill="#FFFFFF" d="M441.972,1091.729c0.208,0,0.676,0.026,0.884,0.026c0.937,2.184,1.638,3.38,3.979,3.276
		c0.779-0.416,1.144-1.118,1.144-1.82c0-1.04-0.52-1.69-1.378-2.054l-2.392-0.937c-1.093-0.416-2.055-1.534-2.055-2.86
		c0-2.548,2.21-3.562,3.822-3.562c1.404,0,2.652,0.416,3.302,0.936l-0.468,2.652h-0.598c-0.754-2.522-2.158-2.886-3.458-2.756
		c-0.599,0.26-0.91,0.857-0.91,1.403c0,1.015,0.598,1.898,1.716,2.314l1.977,0.702c1.117,0.416,2.392,1.274,2.392,3.068
		c0,1.976-2.002,3.666-4.212,3.666c-1.508,0-2.055-0.183-3.433-0.729L441.972,1091.729z"/>
	<path fill="#FFFFFF" d="M456.193,1094.355l2.288,0.234v0.91h-5.72v-0.52c0.779,0,1.456-0.547,1.456-1.612v-5.746
		c0-1.639-0.572-2.21-1.612-2.626v-0.521c1.481,0,2.729-0.182,3.588-0.806V1094.355z M455.102,1077.014
		c0.936,0,1.664,0.728,1.664,1.664c0,0.91-0.729,1.611-1.664,1.611c-0.91,0-1.612-0.701-1.612-1.611
		C453.489,1077.741,454.191,1077.014,455.102,1077.014z"/>
	<path fill="#FFFFFF" d="M471.741,1084.189c-0.078,0.312-0.104,0.91-0.182,1.196h-2.705c0.599,0.754,0.858,1.3,0.858,2.262
		c0,3.198-2.938,4.316-5.564,4.212c-0.468,0.261-0.832,0.469-0.832,0.858c0,0.442,0.13,1.118,1.82,1.222l3.172,0.183
		c2.314,0.13,3.276,1.43,3.276,2.522c0,1.819-1.456,3.067-2.808,3.848c-1.482,0.858-2.704,1.274-3.9,1.274
		c-2.938,0-4.576-1.509-4.576-3.328c0-0.755,0.13-1.066,0.442-1.612l2.287-1.456c-1.508-0.286-2.132-1.482-1.846-2.834l2.236-0.807
		c-1.3-0.493-2.756-1.611-2.756-3.458c0-3.042,2.756-4.472,4.81-4.472c0.729,0,1.769,0.182,2.263,0.39H471.741z M469.505,1097.814
		c0-1.196-0.494-1.925-1.924-2.002l-3.874-0.261c-0.962,0.521-1.456,1.404-1.456,2.158c0,1.742,1.689,2.782,3.562,2.782
		c1.482,0,2.158-0.234,3.095-0.832C469.245,1099.244,469.505,1098.672,469.505,1097.814z M467.659,1088.142
		c0-2.106-1.248-3.588-3.381-3.536c-1.117,0.521-1.533,1.586-1.533,2.86c0,1.742,1.248,3.771,3.64,3.536
		C467.243,1090.534,467.659,1089.441,467.659,1088.142z"/>
	<path fill="#FFFFFF" d="M483.337,1088.428c0-1.326-1.041-2.782-2.99-2.782c-1.353,0-2.418,1.04-3.017,1.95v6.76l2.288,0.234v0.91
		h-5.72v-0.52c0.832,0,1.456-0.547,1.456-1.612v-5.746c0-1.639-0.572-2.21-1.612-2.626v-0.521c1.481,0,2.729-0.182,3.588-0.806
		v3.067c1.248-1.924,2.393-2.912,4.16-2.912c2.366,0,3.849,1.534,3.849,4.238v6.292l2.288,0.234v0.91h-5.721v-0.52
		c0.806,0,1.431-0.547,1.431-1.612V1088.428z"/>
	<path fill="#FFFFFF" d="M494.126,1091.729c0.208,0,0.676,0.026,0.884,0.026c0.937,2.184,1.638,3.38,3.979,3.276
		c0.779-0.416,1.144-1.118,1.144-1.82c0-1.04-0.52-1.69-1.378-2.054l-2.392-0.937c-1.093-0.416-2.055-1.534-2.055-2.86
		c0-2.548,2.21-3.562,3.822-3.562c1.404,0,2.652,0.416,3.302,0.936l-0.468,2.652h-0.598c-0.754-2.522-2.158-2.886-3.458-2.756
		c-0.599,0.26-0.91,0.857-0.91,1.403c0,1.015,0.598,1.898,1.716,2.314l1.977,0.702c1.117,0.416,2.392,1.274,2.392,3.068
		c0,1.976-2.002,3.666-4.212,3.666c-1.508,0-2.055-0.183-3.433-0.729L494.126,1091.729z"/>
	<path fill="#FFFFFF" d="M510.271,1083.8c3.536,0,5.877,2.418,5.877,5.72c0,3.328-2.912,6.293-6.188,6.293
		c-3.406,0-5.721-2.496-5.721-5.98C504.239,1086.504,507.048,1083.8,510.271,1083.8z M514.016,1090.326
		c0-4.135-3.302-5.461-4.68-5.461c-0.442,0-1.04,0.104-1.456,0.286c-1.066,0.91-1.586,2.263-1.586,3.822
		c0,4.004,2.704,5.591,4.523,5.591c0.807,0,0.988,0,1.509-0.234C513.106,1093.602,514.016,1092.51,514.016,1090.326z"/>
	<path fill="#FFFFFF" d="M521.529,1094.355l2.288,0.234v0.91h-5.72v-0.52c0.728,0,1.456-0.547,1.456-1.612v-13.521
		c0-1.612-0.521-1.69-1.586-2.055v-0.494c1.455,0,2.678-0.676,3.562-1.3V1094.355z"/>
	<path fill="#FFFFFF" d="M538.638,1094.59v0.676l-4.265,0.469v-2.704c-1.352,2.21-2.288,2.729-3.614,2.729
		c-2.548,0-4.056-1.897-4.03-4.186l0.026-3.979c0-1.638-0.52-2.184-1.586-2.6v-0.442c1.456,0,2.704-0.26,3.562-0.884v7.02
		c0,2.314,1.195,3.406,2.859,3.406c1.04,0,1.847-0.494,2.782-1.872v-4.628c0-1.638-0.494-2.184-1.56-2.6v-0.442
		c1.456,0,2.704-0.26,3.562-0.884v10.686L538.638,1094.59z"/>
	<path fill="#FFFFFF" d="M543.446,1080.211v3.875h3.484l-0.13,1.195h-3.354v7.125c0,1.273,0.677,1.819,1.769,1.819
		c0.494,0,1.222-0.052,1.69-0.598l0.338,0.364c-1.04,1.248-2.236,1.768-3.303,1.768c-1.768,0-2.521-1.195-2.521-2.756v-7.723h-1.924
		l-0.053-0.832c1.092-0.363,2.236-0.649,2.496-2.054l0.416-2.314L543.446,1080.211z"/>
	<path fill="#FFFFFF" d="M552.599,1094.355l2.288,0.234v0.91h-5.72v-0.52c0.779,0,1.456-0.547,1.456-1.612v-5.746
		c0-1.639-0.572-2.21-1.612-2.626v-0.521c1.482,0,2.73-0.182,3.588-0.806V1094.355z M551.507,1077.014
		c0.936,0,1.664,0.728,1.664,1.664c0,0.91-0.729,1.611-1.664,1.611c-0.91,0-1.612-0.701-1.612-1.611
		C549.895,1077.741,550.597,1077.014,551.507,1077.014z"/>
	<path fill="#FFFFFF" d="M562.426,1083.8c3.536,0,5.877,2.418,5.877,5.72c0,3.328-2.912,6.293-6.188,6.293
		c-3.406,0-5.721-2.496-5.721-5.98C556.394,1086.504,559.202,1083.8,562.426,1083.8z M566.17,1090.326
		c0-4.135-3.302-5.461-4.68-5.461c-0.442,0-1.04,0.104-1.456,0.286c-1.066,0.91-1.586,2.263-1.586,3.822
		c0,4.004,2.704,5.591,4.523,5.591c0.807,0,0.988,0,1.509-0.234C565.261,1093.602,566.17,1092.51,566.17,1090.326z"/>
	<path fill="#FFFFFF" d="M580.106,1088.428c0-1.326-1.041-2.782-2.99-2.782c-1.353,0-2.418,1.04-3.017,1.95v6.76l2.288,0.234v0.91
		h-5.72v-0.52c0.832,0,1.456-0.547,1.456-1.612v-5.746c0-1.639-0.572-2.21-1.612-2.626v-0.521c1.481,0,2.729-0.182,3.588-0.806
		v3.067c1.248-1.924,2.393-2.912,4.16-2.912c2.366,0,3.849,1.534,3.849,4.238v6.292l2.288,0.234v0.91h-5.721v-0.52
		c0.806,0,1.431-0.547,1.431-1.612V1088.428z"/>
	<path fill="#FFFFFF" d="M586.138,1091.729c0.208,0,0.676,0.026,0.884,0.026c0.937,2.184,1.638,3.38,3.979,3.276
		c0.779-0.416,1.144-1.118,1.144-1.82c0-1.04-0.52-1.69-1.378-2.054l-2.392-0.937c-1.093-0.416-2.055-1.534-2.055-2.86
		c0-2.548,2.21-3.562,3.822-3.562c1.404,0,2.652,0.416,3.302,0.936l-0.468,2.652h-0.598c-0.754-2.522-2.158-2.886-3.458-2.756
		c-0.599,0.26-0.91,0.857-0.91,1.403c0,1.015,0.598,1.898,1.716,2.314l1.977,0.702c1.117,0.416,2.392,1.274,2.392,3.068
		c0,1.976-2.002,3.666-4.212,3.666c-1.508,0-2.055-0.183-3.433-0.729L586.138,1091.729z"/>
	<path fill="#FFFFFF" d="M604.675,1080.211v3.875h3.484l-0.13,1.195h-3.354v7.125c0,1.273,0.677,1.819,1.769,1.819
		c0.494,0,1.222-0.052,1.69-0.598l0.338,0.364c-1.04,1.248-2.236,1.768-3.303,1.768c-1.768,0-2.521-1.195-2.521-2.756v-7.723h-1.924
		l-0.053-0.832c1.092-0.363,2.236-0.649,2.496-2.054l0.416-2.314L604.675,1080.211z"/>
	<path fill="#FFFFFF" d="M615.751,1083.8c3.536,0,5.877,2.418,5.877,5.72c0,3.328-2.912,6.293-6.188,6.293
		c-3.406,0-5.721-2.496-5.721-5.98C609.719,1086.504,612.527,1083.8,615.751,1083.8z M619.495,1090.326
		c0-4.135-3.302-5.461-4.68-5.461c-0.442,0-1.04,0.104-1.456,0.286c-1.066,0.91-1.586,2.263-1.586,3.822
		c0,4.004,2.704,5.591,4.524,5.591c0.806,0,0.987,0,1.508-0.234C618.585,1093.602,619.495,1092.51,619.495,1090.326z"/>
	<path fill="#FFFFFF" d="M635.069,1084.189c-0.078,0.312-0.104,0.91-0.182,1.196h-2.705c0.599,0.754,0.858,1.3,0.858,2.262
		c0,3.198-2.938,4.316-5.564,4.212c-0.468,0.261-0.832,0.469-0.832,0.858c0,0.442,0.13,1.118,1.82,1.222l3.172,0.183
		c2.314,0.13,3.276,1.43,3.276,2.522c0,1.819-1.456,3.067-2.808,3.848c-1.482,0.858-2.704,1.274-3.9,1.274
		c-2.938,0-4.576-1.509-4.576-3.328c0-0.755,0.13-1.066,0.442-1.612l2.287-1.456c-1.508-0.286-2.132-1.482-1.846-2.834l2.236-0.807
		c-1.3-0.493-2.756-1.611-2.756-3.458c0-3.042,2.756-4.472,4.81-4.472c0.729,0,1.769,0.182,2.263,0.39H635.069z M632.833,1097.814
		c0-1.196-0.494-1.925-1.924-2.002l-3.874-0.261c-0.962,0.521-1.456,1.404-1.456,2.158c0,1.742,1.689,2.782,3.562,2.782
		c1.482,0,2.158-0.234,3.095-0.832C632.573,1099.244,632.833,1098.672,632.833,1097.814z M630.987,1088.142
		c0-2.106-1.248-3.588-3.381-3.536c-1.117,0.521-1.533,1.586-1.533,2.86c0,1.742,1.248,3.771,3.64,3.536
		C630.571,1090.534,630.987,1089.441,630.987,1088.142z"/>
	<path fill="#FFFFFF" d="M645.963,1087.596v0.858h-7.202c0,0.338-0.026,0.676-0.026,1.014c0,3.302,1.924,4.758,3.978,4.758
		c1.457,0,2.314-0.806,3.095-1.689l0.338,0.338c-1.3,2.132-2.86,2.912-4.784,2.912c-2.262,0-4.811-2.106-4.811-5.435
		c0-4.16,3.146-6.552,5.513-6.552S645.963,1085.646,645.963,1087.596z M638.864,1087.882l4.654-0.39
		c0.078-1.742-1.404-3.017-3.328-2.549C639.229,1085.802,639.099,1086.634,638.864,1087.882z"/>
	<path fill="#FFFFFF" d="M651.501,1080.211v3.875h3.483l-0.13,1.195h-3.354v7.125c0,1.273,0.676,1.819,1.768,1.819
		c0.494,0,1.222-0.052,1.69-0.598l0.338,0.364c-1.04,1.248-2.236,1.768-3.303,1.768c-1.768,0-2.521-1.195-2.521-2.756v-7.723h-1.925
		l-0.052-0.832c1.093-0.363,2.236-0.649,2.496-2.054l0.416-2.314L651.501,1080.211z"/>
	<path fill="#FFFFFF" d="M666.269,1088.428c0-1.326-1.04-2.782-2.99-2.782c-1.352,0-2.418,1.04-3.016,1.95v6.76l2.288,0.234v0.91
		h-5.721v-0.52c0.832,0,1.456-0.547,1.456-1.612v-12.923c0-1.638-0.572-2.21-1.611-2.626v-0.521c1.481,0,2.729-0.676,3.588-1.3
		v10.738c1.248-1.924,2.392-2.912,4.16-2.912c2.366,0,3.848,1.534,3.848,4.238v6.292l2.288,0.234v0.91h-5.72v-0.52
		c0.806,0,1.43-0.547,1.43-1.612V1088.428z"/>
	<path fill="#FFFFFF" d="M681.115,1087.596v0.858h-7.202c0,0.338-0.026,0.676-0.026,1.014c0,3.302,1.924,4.758,3.978,4.758
		c1.457,0,2.314-0.806,3.095-1.689l0.338,0.338c-1.3,2.132-2.86,2.912-4.784,2.912c-2.262,0-4.811-2.106-4.811-5.435
		c0-4.16,3.146-6.552,5.513-6.552S681.115,1085.646,681.115,1087.596z M674.017,1087.882l4.654-0.39
		c0.078-1.742-1.404-3.017-3.328-2.549C674.381,1085.802,674.251,1086.634,674.017,1087.882z"/>
	<path fill="#FFFFFF" d="M690.943,1086.764h-0.521c-0.182-0.494-0.676-0.754-1.196-0.754c-0.884,0-1.481,0.598-2.105,1.56v6.761
		l2.521,0.26v0.91h-5.979c-0.026-0.052-0.026-0.416-0.026-0.468c0.78-0.052,1.456-0.624,1.456-1.664v-5.772
		c0-1.638-0.52-2.184-1.586-2.574v-0.468c1.482,0,2.73-0.286,3.614-0.91v3.068c0.857-1.847,1.664-2.938,2.912-2.938
		c0.702,0,1.273,0.13,1.586,0.286L690.943,1086.764z"/>
	<path fill="#FFFFFF" d="M695.414,1092.25c0.937,0,1.664,0.728,1.664,1.664c0,0.91-0.728,1.612-1.664,1.612
		c-0.91,0-1.612-0.702-1.612-1.612C693.802,1092.978,694.504,1092.25,695.414,1092.25z"/>
	<path fill="#FFFFFF" d="M361.294,1114.184v-0.885h8.19v0.494c-1.404,0-2.938,0.729-2.938,3.173v13.599
		c0,4.602-3.744,7.436-6.553,7.436c-0.025-0.052-0.182-0.598-0.182-0.649c2.912-0.391,4.473-3.173,4.473-6.553v-16.354
		L361.294,1114.184z"/>
	<path fill="#FFFFFF" d="M376.27,1119.8c3.536,0,5.877,2.418,5.877,5.72c0,3.328-2.912,6.293-6.188,6.293
		c-3.406,0-5.721-2.496-5.721-5.98C370.237,1122.504,373.046,1119.8,376.27,1119.8z M380.014,1126.326
		c0-4.135-3.302-5.461-4.68-5.461c-0.442,0-1.04,0.104-1.456,0.286c-1.066,0.91-1.586,2.263-1.586,3.822
		c0,4.004,2.704,5.591,4.523,5.591c0.807,0,0.988,0,1.509-0.234C379.104,1129.602,380.014,1128.51,380.014,1126.326z"/>
	<path fill="#FFFFFF" d="M387.943,1130.355l2.288,0.234v0.91h-5.72v-0.52c0.779,0,1.456-0.547,1.456-1.612v-5.746
		c0-1.639-0.572-2.21-1.612-2.626v-0.521c1.481,0,2.729-0.182,3.588-0.806V1130.355z M386.852,1113.014
		c0.936,0,1.664,0.728,1.664,1.664c0,0.91-0.729,1.611-1.664,1.611c-0.91,0-1.612-0.701-1.612-1.611
		C385.239,1113.741,385.941,1113.014,386.852,1113.014z"/>
	<path fill="#FFFFFF" d="M401.853,1124.428c0-1.326-1.039-2.782-2.989-2.782c-1.353,0-2.419,1.04-3.017,1.95v6.76l2.288,0.234v0.91
		h-5.72v-0.52c0.832,0,1.456-0.547,1.456-1.612v-5.746c0-1.639-0.572-2.21-1.612-2.626v-0.521c1.482,0,2.73-0.182,3.588-0.806v3.067
		c1.248-1.924,2.393-2.912,4.16-2.912c2.366,0,3.849,1.534,3.849,4.238v6.292l2.288,0.234v0.91h-5.721v-0.52
		c0.807,0,1.43-0.547,1.43-1.612V1124.428z"/>
	<path fill="#FFFFFF" d="M425.409,1130.59v0.676l-4.265,0.469v-2.704c-1.352,2.21-2.288,2.729-3.614,2.729
		c-2.548,0-4.056-1.897-4.03-4.186l0.026-3.979c0-1.638-0.52-2.184-1.586-2.6v-0.442c1.456,0,2.704-0.26,3.562-0.884v7.02
		c0,2.314,1.195,3.406,2.859,3.406c1.04,0,1.847-0.494,2.782-1.872v-4.628c0-1.638-0.494-2.184-1.56-2.6v-0.442
		c1.456,0,2.704-0.26,3.562-0.884v10.686L425.409,1130.59z"/>
	<path fill="#FFFFFF" d="M427.15,1127.729c0.208,0,0.676,0.026,0.884,0.026c0.936,2.184,1.638,3.38,3.979,3.276
		c0.779-0.416,1.144-1.118,1.144-1.82c0-1.04-0.52-1.69-1.378-2.054l-2.393-0.937c-1.092-0.416-2.054-1.534-2.054-2.86
		c0-2.548,2.21-3.562,3.822-3.562c1.404,0,2.652,0.416,3.302,0.936l-0.468,2.652h-0.598c-0.754-2.522-2.158-2.886-3.458-2.756
		c-0.599,0.26-0.91,0.857-0.91,1.403c0,1.015,0.598,1.898,1.716,2.314l1.976,0.702c1.118,0.416,2.393,1.274,2.393,3.068
		c0,1.976-2.002,3.666-4.212,3.666c-1.509,0-2.055-0.183-3.433-0.729L427.15,1127.729z"/>
	<path fill="#FFFFFF" d="M452.136,1124.428c0-1.326-1.039-2.782-2.989-2.782c-1.353,0-2.419,1.04-3.017,1.95v6.76l2.288,0.234v0.91
		h-5.72v-0.52c0.832,0,1.456-0.547,1.456-1.612v-5.746c0-1.639-0.572-2.21-1.612-2.626v-0.521c1.482,0,2.73-0.182,3.588-0.806v3.067
		c1.248-1.924,2.393-2.912,4.16-2.912c2.366,0,3.849,1.534,3.849,4.238v6.292l2.288,0.234v0.91h-5.721v-0.52
		c0.807,0,1.43-0.547,1.43-1.612V1124.428z"/>
	<path fill="#FFFFFF" d="M463.602,1119.8c3.536,0,5.877,2.418,5.877,5.72c0,3.328-2.912,6.293-6.188,6.293
		c-3.406,0-5.721-2.496-5.721-5.98C457.569,1122.504,460.378,1119.8,463.602,1119.8z M467.346,1126.326
		c0-4.135-3.302-5.461-4.68-5.461c-0.442,0-1.04,0.104-1.456,0.286c-1.066,0.91-1.586,2.263-1.586,3.822
		c0,4.004,2.704,5.591,4.523,5.591c0.807,0,0.988,0,1.509-0.234C466.437,1129.602,467.346,1128.51,467.346,1126.326z"/>
	<path fill="#FFFFFF" d="M480.216,1120.164l3.432,8.45l2.08-7.28l-1.897-0.131v-0.909h4.94v0.52
		c-1.041,0.234-1.95,1.015-2.522,2.444l-2.393,8.269l-1.065,0.338l-3.771-8.814l-2.756,8.477l-1.118,0.338l-3.614-10.557l-1.69-0.13
		l0.026-0.884h5.591v0.571c-1.223,0-1.404,0.832-1.041,2.002l1.873,5.747l2.678-8.087L480.216,1120.164z"/>
	<path fill="#FFFFFF" d="M491.603,1128.224c0.937,0,1.664,0.729,1.664,1.664c0,0.91-0.728,1.612-1.664,1.612
		c-0.91,0-1.612-0.702-1.612-1.612C489.99,1128.952,490.692,1128.224,491.603,1128.224z M490.562,1113.299
		c1.066-0.285,2.028-0.728,2.679-1.352l-1.118,13.937l-0.91-0.156L490.562,1113.299z"/>
</g>
<g>
	<rect x="40" y="62" fill="none" width="766.11" height="168"/>
	<path fill="#FFFFFF" d="M42.964,100.76c0-23.369,19.266-39.672,41.609-39.672s41.609,16.303,41.609,39.672
		s-19.266,39.785-41.609,39.785S42.964,124.129,42.964,100.76z M104.979,100.76c0-12.198-7.41-21.66-20.406-21.66
		c-12.996,0-20.406,9.462-20.406,21.66c0,12.197,7.41,21.773,20.406,21.773C97.569,122.533,104.979,112.957,104.979,100.76z"/>
	<path fill="#FFFFFF" d="M203.361,139.52h-22.458l-10.83-17.784h-7.752v17.784h-20.747V62h29.411
		c20.862,0,32.604,13.225,32.604,30.438c0,11.172-4.901,20.064-14.021,25.08L203.361,139.52z M169.96,105.205
		c9.348,0,12.768-5.244,12.768-12.768s-3.42-12.882-12.768-12.882h-7.639v25.649H169.96z"/>
	<path fill="#FFFFFF" d="M258.195,113.414V97.453h36.593c0,0.457,0.114,1.711,0.114,3.307c0,26.447-15.162,39.899-38.075,39.899
		c-22.002,0-40.47-16.53-40.47-39.899s18.24-39.672,40.128-39.672c14.934,0,26.789,6.612,32.831,17.441l-16.529,10.032
		c-2.964-5.243-7.98-9.462-16.645-9.462c-12.312,0-18.581,9.462-18.581,21.66c0,12.197,6.611,21.888,19.38,21.888
		c9.461,0,13.793-3.42,16.188-9.233H258.195z"/>
	<path fill="#FFFFFF" d="M317.475,139.52h-20.292l37.733-78.887c0.342-0.799,1.026-0.799,1.368,0l37.619,78.887h-21.432
		l-2.964-6.612c0.114,0-29.184,0-29.184,0L317.475,139.52z M334.688,99.392l-7.752,18.012h15.731L334.688,99.392z"/>
	<path fill="#FFFFFF" d="M406.28,100.873v38.646h-19.494V60.975c0-0.685,0.343-1.254,1.597-0.229l48.677,40.127V62h19.494v78.659
		c0,0.911-0.342,1.254-1.597,0.228L406.28,100.873z"/>
	<path fill="#FFFFFF" d="M476.162,62h20.748v77.52h-20.748V62z"/>
	<path fill="#FFFFFF" d="M511.047,138.379l34.313-58.938h-28.499V62h60.305c0.684,0,0.912,0.229,0.342,1.141l-34.313,58.937h31.464
		v17.442h-63.27C510.705,139.52,510.477,139.291,511.047,138.379z"/>
	<path fill="#FFFFFF" d="M592.556,62h20.748v77.52h-20.748V62z"/>
	<path fill="#FFFFFF" d="M652.405,100.873v38.646h-19.494V60.975c0-0.685,0.343-1.254,1.597-0.229l48.677,40.127V62h19.494v78.659
		c0,0.911-0.342,1.254-1.597,0.228L652.405,100.873z"/>
	<path fill="#FFFFFF" d="M759.907,113.414V97.453H796.5c0,0.457,0.114,1.711,0.114,3.307c0,26.447-15.162,39.899-38.075,39.899
		c-22.002,0-40.47-16.53-40.47-39.899s18.24-39.672,40.128-39.672c14.934,0,26.789,6.612,32.831,17.441l-16.529,10.032
		c-2.964-5.243-7.98-9.462-16.645-9.462c-12.312,0-18.581,9.462-18.581,21.66c0,12.197,6.611,21.888,19.38,21.888
		c9.461,0,13.793-3.42,16.188-9.233H759.907z"/>
</g>
<g>
	<rect x="54" y="198" fill="none" width="218" height="78"/>
	<path fill="#FFFFFF" d="M55.92,210.443h3.239l0.16-1.48c0.479-4.919,3.599-10.958,8.638-10.958c2.04,0,3.32,0.601,4.279,1.521
		l-1.28,3.359l-0.8-0.08c-0.56-1.84-1.959-3.32-3.12-3.32c-0.84,0-1.28,0.16-1.759,0.32c-1.52,1.24-2.4,4.399-2.84,8.199
		l-0.24,2.439h3.839v1.52h-4l-1.32,14.117c-1,8.639-7.759,12.358-11.198,12.358c-2.12,0-3.719-0.88-4.679-2l1.92-3.159l0.72,0.08
		c0.88,2.439,3.959,3.239,6.479,2.159c2.24-1.96,3.2-4.519,3.64-8.919l1.399-14.637H55.92V210.443z"/>
	<path fill="#FFFFFF" d="M76.478,210.043c4.319,0,6.999,3.279,6.999,7.879c0,5.479-4.279,10.518-8.878,10.518
		c-4.119,0-6.759-3.359-6.759-8.118C67.839,215.842,71.079,210.043,76.478,210.043z M77.798,226.4c1.32-1.08,2.6-3.72,2.6-7.318
		c0-4.92-2.6-7.479-5.519-7.479c-0.4,0-0.68,0.08-1.16,0.24c-1.799,1.04-2.879,4.159-2.879,7.358c0,5.319,2.68,7.398,5.719,7.398
		C76.958,226.6,77.358,226.561,77.798,226.4z"/>
	<path fill="#FFFFFF" d="M93.878,216.722c1.4-3.239,3.359-6.679,5.759-6.679c1.32,0,2.16,0.24,3,1.04l-1.28,3.399l-0.8-0.08
		c-0.36-0.8-1.24-1.4-2.12-1.4c-2.24,0-3.839,4.08-5.079,7.399l-0.6,6.999l-2.879,1.039c-0.36-0.439-0.56-1.239-0.56-2.359
		c0-1.6,0.68-3.479,1.6-5.318l0.36-5.64c0.16-2.319-0.84-2.999-1.72-2.999c-0.84,0-1.439,0.16-2.919,1.56l-0.52-0.601
		c1.799-1.959,3.079-3.079,4.599-3.079c2.16,0,3.399,1.56,3.279,4.52L93.878,216.722z"/>
	<path fill="#FFFFFF" d="M119.238,210.443h4.16v1.52h-4.319l-1.36,12.518c-0.12,1.32,0.72,1.84,1.479,1.84
		c0.84,0,1.44-0.16,2.92-1.56l0.52,0.6c-1.799,1.96-3.079,3.079-4.599,3.079c-2.16,0-3.639-1.559-3.359-3.959l1.48-12.518h-2.88
		v-1.52h3.08l0.72-6.08h2.84L119.238,210.443z"/>
	<path fill="#FFFFFF" d="M139.117,216.882c0.48-3.199-0.8-4.279-2.56-4.279c-2.12,0-3.399,1.56-5.399,4.959l-0.92,9.839
		l-2.879,1.039c-0.36-0.439-0.56-1.239-0.56-2.359c0-1.6,0.6-3.719,1.479-6.279l1.72-15.957c0.2-2.439-0.84-3.159-2.6-3.159v-0.76
		c2.24,0,4.679-0.96,6.039-1.92l-2.04,17.317c1.84-3.199,3.879-5.319,6.479-5.319c3.319,0,4.759,2.68,4.359,5.519l-1.2,8.959
		c-0.2,1.32,0.68,1.84,1.44,1.84c0.84,0,1.44-0.16,2.919-1.56l0.52,0.6c-1.8,1.96-3.08,3.079-4.599,3.079
		c-2.16,0-3.64-1.559-3.28-3.959L139.117,216.882z"/>
	<path fill="#FFFFFF" d="M160.716,224.48c-1.16,1.72-3.04,3.959-5.799,3.959c-4.599,0-6.959-2.919-6.959-7.438
		c0-4.959,3.879-10.958,8.918-10.958c2.959,0,4.399,2.039,4.399,4.479c0,1.439-0.16,3.239-3.879,3.479l-6.359,0.399
		c-0.08,0.521-0.08,1.08-0.08,1.64c0,4.68,2.879,6,5.079,6s3.04-1.36,3.919-2.32L160.716,224.48z M151.158,217.441l5.159-0.799
		c1.359-0.281,1.959-0.92,1.959-2.08c0-2.08-0.76-3.08-2.36-3.08c-0.72,0-1.24,0.2-1.72,0.36
		C152.998,212.803,151.598,214.842,151.158,217.441z"/>
</g>
<g>
	<path fill="#FFFFFF" d="M164.638,1073.16"/>
	<g>
		<path fill="#FFFFFF" d="M135.985,1086.355c-0.253,0-0.509-0.044-0.762-0.137l-28.735-10.458c-1.158-0.421-1.756-1.7-1.333-2.857
			c0.418-1.159,1.703-1.758,2.858-1.334l28.734,10.459c1.158,0.42,1.756,1.7,1.332,2.859
			C137.752,1085.792,136.896,1086.355,135.985,1086.355z"/>
	</g>
	<g>
		<path fill="#FFFFFF" d="M107.34,1075.845c-0.771,0-1.52-0.401-1.936-1.114l-21.422-37.108c-0.614-1.066-0.251-2.431,0.816-3.046
			c1.064-0.617,2.429-0.251,3.047,0.817l21.424,37.107c0.616,1.066,0.25,2.428-0.816,3.043
			C108.103,1075.749,107.717,1075.845,107.34,1075.845z"/>
	</g>
	<g>
		<path fill="#FFFFFF" d="M221.137,1075.439c-1.232,0-2.23-0.998-2.23-2.23v-42.458c0-1.229,0.998-2.229,2.23-2.229
			s2.23,1,2.23,2.229v42.458C223.367,1074.441,222.369,1075.439,221.137,1075.439z"/>
	</g>
	<g>
		<path fill="#FFFFFF" d="M221.463,1075.763c-0.77,0-1.52-0.4-1.934-1.118c-0.613-1.065-0.248-2.427,0.819-3.045l24.779-14.312
			c1.065-0.617,2.431-0.247,3.05,0.819c0.613,1.065,0.248,2.431-0.818,3.045l-24.78,14.311
			C222.226,1075.666,221.842,1075.763,221.463,1075.763z"/>
	</g>
	<path fill="#FFFFFF" d="M221.507,1009.602c-35.047,0-63.56,28.514-63.56,63.559c0,27.672-22.51,50.18-50.178,50.18
		c-27.672,0-50.18-22.508-50.18-50.18c0-27.666,22.508-50.177,50.18-50.177c18.507,0,34.695,10.081,43.394,25.032
		c1.754-4.89,4.001-9.551,6.688-13.914c-11.643-14.895-29.756-24.5-50.082-24.5c-35.048,0-63.561,28.514-63.561,63.559
		c0,35.048,28.513,63.562,63.561,63.562c35.047,0,63.559-28.514,63.559-63.562c0-27.666,22.51-50.177,50.179-50.177
		s50.179,22.511,50.179,50.177c0,27.672-22.51,50.18-50.179,50.18c-18.507,0-34.696-10.079-43.394-25.027
		c-1.756,4.891-4.004,9.55-6.691,13.911c11.644,14.896,29.758,24.498,50.085,24.498c35.048,0,63.56-28.514,63.56-63.562
		C285.066,1038.115,256.555,1009.602,221.507,1009.602z"/>
</g>
<g>
</g>
<g>
</g>
<g>
</g>
<g>
</g>
<g>
</g>
<g>
</g>
</svg>
