<?xml version="1.0" encoding="utf-8"?>
<!-- Generator: Adobe Illustrator 16.0.0, SVG Export Plug-In . SVG Version: 6.00 Build 0)  -->
<!DOCTYPE svg PUBLIC "-//W3C//DTD SVG 1.1//EN" "http://www.w3.org/Graphics/SVG/1.1/DTD/svg11.dtd">
<svg version="1.1"
	 id="svg10067" xmlns:dc="http://purl.org/dc/elements/1.1/" xmlns:cc="http://creativecommons.org/ns#" xmlns:rdf="http://www.w3.org/1999/02/22-rdf-syntax-ns#" xmlns:svg="http://www.w3.org/2000/svg" xmlns:sodipodi="http://sodipodi.sourceforge.net/DTD/sodipodi-0.dtd" xmlns:inkscape="http://www.inkscape.org/namespaces/inkscape" inkscape:export-ydpi="200" inkscape:version="0.48.2 r9819" inkscape:export-xdpi="200" inkscape:export-filename="../03.design_business.model.canvas.png" sodipodi:docname="business.model.canvas.svg"
	 xmlns="http://www.w3.org/2000/svg" xmlns:xlink="http://www.w3.org/1999/xlink" x="0px" y="0px" width="1488.189px"
	 height="1052.363px" viewBox="0 0 1488.189 1052.363" enable-background="new 0 0 1488.189 1052.363" xml:space="preserve">
<sodipodi:namedview  units="mm" showguides="false" showgrid="true" inkscape:cy="500.0833" inkscape:cx="561.1584" inkscape:zoom="0.48" borderopacity="1.0" bordercolor="#666666" pagecolor="#ffffff" id="base" inkscape:guide-bbox="true" inkscape:window-maximized="1" inkscape:window-y="0" inkscape:window-x="0" inkscape:window-height="806" inkscape:window-width="1440" inkscape:pageshadow="2" inkscape:pageopacity="1" inkscape:document-units="mm" inkscape:current-layer="layer1">
	<sodipodi:guide  position="478.34646,974.40945" orientation="0,1" id="guide24376"></sodipodi:guide>
	<sodipodi:guide  position="35.433071,938.97638" orientation="1,0" id="guide24416"></sodipodi:guide>
	<sodipodi:guide  position="1452.7559,921.25984" orientation="1,0" id="guide24418"></sodipodi:guide>
	<sodipodi:guide  position="974.40945,106.29921" orientation="0,1" id="guide24420"></sodipodi:guide>
	<sodipodi:guide  position="389.76378,938.97638" orientation="0,1" id="guide24422"></sodipodi:guide>
	<sodipodi:guide  position="701.5748,1009.8425" orientation="0,1" id="guide24424"></sodipodi:guide>
	<sodipodi:guide  position="230.31496,921.25984" orientation="0,1" id="guide25257"></sodipodi:guide>
</sodipodi:namedview>
<a id="a24212" xlink:href="http://creativecommons.org/licenses/by-sa/3.0/"  transform="matrix(0.56208624,0,0,0.56208624,1028.2309,500.82271)" xlink:title="CC BY-SA">
	<text transform="matrix(1.7791 0 0 1.7791 -406.8823 834.9479)" font-family="'TitilliumText25L-250wt'" font-size="9">This work is licensed under the Creative Commons Attribution-Share Alike 3.0 Unported License.</text>
	<text transform="matrix(1.7791 0 0 1.7791 255.303 834.9479)" font-family="'TitilliumText25L-250wt'" font-size="10"> </text>
	<text transform="matrix(1.7791 0 0 1.7791 -406.8823 854.9627)" font-family="'TitilliumText25L-250wt'" font-size="9">To view a copy of this license, visit http://creativecommons.org/licenses/by-sa/3.0/</text>
	<text transform="matrix(1.7791 0 0 1.7791 178.4165 854.9627)" font-family="'TitilliumText25L-250wt'" font-size="10"> </text>
	<text transform="matrix(1.7791 0 0 1.7791 -406.8823 874.9757)" font-family="'TitilliumText25L-250wt'" font-size="9">or send a letter to Creative Commons, 171 Second Street, Suite 300, San Francisco, California, 94105, USA.</text>
</a>
<g id="g25400" transform="matrix(0.83432244,0,0,0.83432244,242.1812,154.35087)">
	<g id="g9971" transform="matrix(0.7026078,0,0,-0.7026078,-2047.1135,1073.3221)">
		<g>
			<defs>
				<rect id="SVGID_1_" x="4923.749" y="96.971" width="45.847" height="45.846"/>
			</defs>
			<clipPath id="SVGID_2_">
				<use xlink:href="#SVGID_1_"  overflow="visible"/>
			</clipPath>
			<g id="g9973" clip-path="url(#SVGID_2_)">
				<g id="g9975" transform="translate(4946.6187,152.9518)">
					<path id="path9977" inkscape:connector-curvature="0" d="M0.001-0.001c9.147,0,16.861-3.139,23.14-9.419
						c6.317-6.317,9.477-14.034,9.477-23.14c0-9.149-3.1-16.766-9.302-22.85c-6.59-6.474-14.36-9.709-23.314-9.709
						c-8.799,0-16.436,3.199-22.906,9.592c-6.397,6.397-9.594,14.05-9.594,22.966s3.197,16.629,9.594,23.14
						C-16.627-3.139-8.992-0.001,0.001-0.001 M0.117-5.872c-7.405,0-13.664-2.599-18.78-7.793
						c-5.312-5.428-7.965-11.725-7.965-18.895c0-7.21,2.634-13.451,7.906-18.722c5.271-5.271,11.552-7.906,18.838-7.906
						c7.247,0,13.566,2.652,18.953,7.963c5.118,4.924,7.675,11.145,7.675,18.665c0,7.403-2.597,13.701-7.79,18.895
						C13.76-8.47,7.481-5.872,0.117-5.872 M8.839-24.48v-13.314H5.117v-15.813H-4.999v15.813h-3.723v13.314
						c0,0.583,0.205,1.076,0.612,1.483c0.408,0.41,0.903,0.613,1.483,0.613H6.745c0.543,0,1.028-0.203,1.454-0.613
						C8.625-23.404,8.839-23.897,8.839-24.48 M-4.475-16.107c0,3.062,1.511,4.595,4.535,4.595c3.022,0,4.534-1.533,4.534-4.595
						c0-3.022-1.512-4.535-4.534-4.535C-2.964-20.642-4.475-19.129-4.475-16.107"/>
				</g>
				<g id="g9979" transform="translate(4896.9019,80.7901)">
					<path id="path9981" inkscape:connector-curvature="0" fill="none" stroke="#000000" stroke-width="0.592" d="M0,0h-31.994
						 M10.665-10.665v-31.996 M0,78.208h-31.994 M10.665,88.873v31.996 M99.54,78.208h31.996 M88.875,88.873v31.996 M99.54,0h31.996
						 M88.875-10.665v-31.996"/>
				</g>
			</g>
		</g>
	</g>
	<g id="g9983" transform="matrix(0.7026078,0,0,-0.7026078,-2047.1135,1073.3221)">
		<g>
			<defs>
				<rect id="SVGID_3_" x="4577.39" y="96.971" width="45.847" height="45.846"/>
			</defs>
			<clipPath id="SVGID_4_">
				<use xlink:href="#SVGID_3_"  overflow="visible"/>
			</clipPath>
			<g id="g9985" clip-path="url(#SVGID_4_)">
				<g id="g9987" transform="translate(4600.2598,152.9518)">
					<path id="path9989" inkscape:connector-curvature="0" d="M0.001-0.001c9.108,0,16.861-3.179,23.256-9.536
						c3.06-3.062,5.386-6.56,6.977-10.495c1.589-3.932,2.384-8.11,2.384-12.528c0-4.458-0.785-8.633-2.356-12.531
						c-1.569-3.895-3.887-7.333-6.947-10.319c-3.179-3.139-6.784-5.544-10.815-7.21c-4.03-1.666-8.198-2.499-12.499-2.499
						c-4.303,0-8.421,0.823-12.354,2.472c-3.935,1.646-7.462,4.028-10.582,7.15c-3.122,3.119-5.494,6.637-7.122,10.552
						c-1.629,3.915-2.442,8.043-2.442,12.384c0,4.301,0.823,8.44,2.472,12.411c1.646,3.975,4.04,7.53,7.178,10.672
						C-16.647-3.159-9.032-0.001,0.001-0.001 M0.117-5.872c-7.443,0-13.702-2.599-18.78-7.793c-2.557-2.599-4.526-5.514-5.901-8.749
						c-1.378-3.235-2.064-6.62-2.064-10.145c0-3.488,0.686-6.85,2.064-10.089c1.374-3.235,3.344-6.124,5.901-8.663
						c2.559-2.539,5.446-4.475,8.663-5.814c3.217-1.336,6.589-2.006,10.117-2.006c3.487,0,6.869,0.68,10.145,2.036
						c3.275,1.356,6.231,3.315,8.866,5.871c5.078,4.961,7.617,11.185,7.617,18.665c0,3.605-0.66,7.014-1.977,10.232
						s-3.237,6.084-5.756,8.606C13.78-8.49,7.481-5.872,0.117-5.872 M-0.291-27.152l-4.36-2.269
						c-0.466,0.97-1.038,1.649-1.716,2.036c-0.678,0.386-1.308,0.58-1.889,0.58c-2.907,0-4.361-1.919-4.361-5.754
						c0-1.746,0.368-3.142,1.106-4.188c0.735-1.046,1.821-1.569,3.255-1.569c1.899,0,3.237,0.93,4.013,2.792l4.012-2.036
						c-0.853-1.589-2.036-2.839-3.548-3.748c-1.511-0.913-3.179-1.369-4.999-1.369c-2.907,0-5.253,0.893-7.035,2.675
						c-1.783,1.783-2.674,4.265-2.674,7.443c0,3.102,0.901,5.561,2.704,7.383c1.801,1.823,4.078,2.732,6.83,2.732
						C-4.922-22.444-2.033-24.013-0.291-27.152 M18.489-27.152l-4.301-2.269c-0.466,0.97-1.038,1.649-1.716,2.036
						c-0.68,0.386-1.328,0.58-1.948,0.58c-2.907,0-4.361-1.919-4.361-5.754c0-1.746,0.368-3.142,1.104-4.188
						s1.823-1.569,3.257-1.569c1.899,0,3.235,0.93,4.012,2.792l4.068-2.036c-0.891-1.589-2.091-2.839-3.603-3.748
						c-1.511-0.913-3.159-1.369-4.943-1.369c-2.945,0-5.301,0.893-7.063,2.675C1.23-38.22,0.349-35.738,0.349-32.56
						c0,3.102,0.901,5.561,2.704,7.383c1.803,1.823,4.08,2.732,6.832,2.732C13.916-22.444,16.783-24.013,18.489-27.152"/>
				</g>
				<g id="g9991" transform="translate(4550.543,80.7901)">
					<path id="path9993" inkscape:connector-curvature="0" fill="none" stroke="#000000" stroke-width="0.592" d="M0.002,0h-31.996
						 M10.665-10.665v-31.996 M0.002,78.208h-31.996 M10.665,88.873v31.996 M99.54,78.208h31.996 M88.875,88.873v31.996 M99.54,0
						h31.996 M88.875-10.665v-31.996"/>
				</g>
			</g>
		</g>
	</g>
	<g id="g9995" transform="matrix(0.7026078,0,0,-0.7026078,-2047.1135,1073.3221)">
		<g>
			<defs>
				<rect id="SVGID_5_" x="4745.999" y="96.971" width="45.847" height="45.846"/>
			</defs>
			<clipPath id="SVGID_6_">
				<use xlink:href="#SVGID_5_"  overflow="visible"/>
			</clipPath>
			<g id="g9997" clip-path="url(#SVGID_6_)">
				<g id="g9999" transform="translate(4768.8687,152.8934)">
					<path id="path10001" inkscape:connector-curvature="0" d="M0.001-0.002c9.108,0,16.821-3.159,23.14-9.476
						c6.317-6.277,9.477-13.974,9.477-23.083s-3.102-16.742-9.304-22.906c-6.549-6.434-14.322-9.649-23.313-9.649
						c-8.801,0-16.436,3.195-22.908,9.592c-6.395,6.394-9.594,14.05-9.594,22.963c0,8.876,3.199,16.573,9.594,23.083
						C-16.59-3.161-8.953-0.002,0.001-0.002 M0.116-5.873c-7.403,0-13.662-2.615-18.778-7.85
						c-5.313-5.388-7.965-11.665-7.965-18.838c0-7.247,2.634-13.487,7.906-18.718c5.271-5.274,11.55-7.91,18.836-7.91
						c7.248,0,13.567,2.655,18.955,7.966c5.116,4.961,7.675,11.182,7.675,18.662c0,7.443-2.599,13.724-7.792,18.838
						C13.798-8.489,7.519-5.873,0.116-5.873 M-14.419-27.966c0.621,3.992,2.229,7.083,4.826,9.272s5.756,3.285,9.477,3.285
						c5.116,0,9.186-1.646,12.21-4.941c3.022-3.295,4.535-7.52,4.535-12.674c0-5.001-1.569-9.159-4.709-12.471
						c-3.139-3.315-7.21-4.971-12.21-4.971c-3.683,0-6.86,1.103-9.534,3.312c-2.676,2.209-4.285,5.351-4.826,9.419h8.198
						c0.193-3.952,2.575-5.927,7.152-5.927c2.286,0,4.128,0.986,5.522,2.965c1.394,1.976,2.092,4.611,2.092,7.906
						c0,3.448-0.638,6.074-1.917,7.876c-1.279,1.803-3.12,2.705-5.524,2.705c-4.341,0-6.782-1.919-7.325-5.757h2.384l-6.455-6.454
						l-6.452,6.454H-14.419z"/>
				</g>
				<g id="g10003" transform="translate(4719.1519,80.7901)">
					<path id="path10005" inkscape:connector-curvature="0" fill="none" stroke="#000000" stroke-width="0.592" d="M0,0h-31.994
						 M10.665-10.665v-31.996 M0,78.208h-31.994 M10.665,88.873v31.996 M99.541,78.208h31.996 M88.875,88.873v31.996 M99.541,0
						h31.996 M88.875-10.665v-31.996"/>
				</g>
			</g>
		</g>
	</g>
	<g id="g10007" transform="matrix(0.7026078,0,0,-0.7026078,-2047.1135,1073.3221)">
		<g>
			<defs>
				<rect id="SVGID_7_" x="4830.304" y="96.971" width="45.846" height="45.846"/>
			</defs>
			<clipPath id="SVGID_8_">
				<use xlink:href="#SVGID_7_"  overflow="visible"/>
			</clipPath>
			<g id="g10009" clip-path="url(#SVGID_8_)">
				<g id="g10011" transform="translate(4853.1729,152.8934)">
					<path id="path10013" inkscape:connector-curvature="0" d="M0-0.002c9.108,0,16.821-3.159,23.141-9.476
						c6.315-6.277,9.476-13.974,9.476-23.083s-3.1-16.742-9.302-22.906C16.765-61.901,8.993-65.116,0-65.116
						c-8.799,0-16.434,3.195-22.906,9.592c-6.396,6.394-9.594,14.05-9.594,22.963c0,8.876,3.198,16.573,9.594,23.083
						C-16.589-3.161-8.954-0.002,0-0.002 M0.117-5.873c-7.405,0-13.664-2.615-18.78-7.85c-5.311-5.388-7.965-11.665-7.965-18.838
						c0-7.247,2.634-13.487,7.906-18.718c5.271-5.274,11.552-7.91,18.838-7.91c7.249,0,13.566,2.655,18.953,7.966
						c5.118,4.961,7.677,11.182,7.677,18.662c0,7.443-2.599,13.724-7.792,18.838C13.799-8.489,7.521-5.873,0.117-5.873
						 M21.338-33.141l0.64-0.29v-9.186l-0.58-0.293l-7.908-3.372l-0.348-0.117l-0.408,0.117l-17.036,7.037l-0.58,0.233l-8.431-3.492
						l-8.314,3.605v8.373l7.792,3.255l-0.058,0.06v9.186l8.838,3.895l19.943-8.256v-8.08L21.338-33.141z M12.094-43.839v5.757
						h-0.057v0.233l-14.943,6.104v-5.931l14.943-6.164v0.06L12.094-43.839z M13.081-36.279l5.234,2.149l-4.826,2.036l-5.116-2.152
						L13.081-36.279z M19.943-41.28v5.641l-5.814-2.442v-5.697L19.943-41.28z"/>
				</g>
				<g id="g10015" transform="translate(4803.4561,80.7901)">
					<path id="path10017" inkscape:connector-curvature="0" fill="none" stroke="#000000" stroke-width="0.592" d="M0.001,0h-31.996
						 M10.667-10.665v-31.996 M0.001,78.208h-31.996 M10.667,88.873v31.996 M99.542,78.208h31.994 M88.876,88.873v31.996 M99.542,0
						h31.994 M88.876-10.665v-31.996"/>
				</g>
			</g>
		</g>
	</g>
	<g id="g10019" transform="matrix(0.7026078,0,0,-0.7026078,-2047.1135,1073.3221)">
		<g>
			<defs>
				<rect id="SVGID_9_" x="4661.695" y="96.971" width="45.847" height="45.846"/>
			</defs>
			<clipPath id="SVGID_10_">
				<use xlink:href="#SVGID_9_"  overflow="visible"/>
			</clipPath>
			<g id="g10021" clip-path="url(#SVGID_10_)">
				<g id="g10023" transform="translate(4684.5645,152.8934)">
					<path id="path10025" inkscape:connector-curvature="0" d="M0-0.002c9.109,0,16.822-3.159,23.141-9.476
						c6.317-6.277,9.477-13.974,9.477-23.083s-3.102-16.742-9.304-22.906C16.764-61.901,8.992-65.116,0-65.116
						c-8.799,0-16.434,3.195-22.906,9.592c-6.396,6.394-9.594,14.05-9.594,22.963c0,8.876,3.198,16.573,9.594,23.083
						C-16.589-3.161-8.953-0.002,0-0.002 M0.116-5.873c-7.403,0-13.662-2.615-18.778-7.85c-5.313-5.388-7.966-11.665-7.966-18.838
						c0-7.247,2.635-13.487,7.906-18.718c5.271-5.274,11.551-7.91,18.838-7.91c7.248,0,13.566,2.655,18.955,7.966
						c5.116,4.961,7.675,11.182,7.675,18.662c0,7.443-2.599,13.724-7.792,18.838C13.799-8.489,7.52-5.873,0.116-5.873
						 M13.372-23.259c0.503,0,0.931-0.173,1.279-0.52c0.348-0.35,0.525-0.776,0.525-1.283v-23.953c0-0.503-0.177-0.93-0.525-1.279
						c-0.348-0.347-0.776-0.523-1.279-0.523H-4.36c-0.505,0-0.931,0.177-1.279,0.523c-0.348,0.35-0.523,0.776-0.523,1.279v7.093
						h-7.094c-0.505,0-0.931,0.173-1.278,0.523c-0.35,0.35-0.525,0.776-0.525,1.279v23.953c0,0.466,0.155,0.863,0.466,1.193
						c0.308,0.33,0.696,0.533,1.161,0.61h0.175H4.478c0.503,0,0.93-0.173,1.279-0.523c0.348-0.35,0.523-0.776,0.523-1.279v-7.093
						H13.372z M-11.512-38.372h5.349v13.311c0,0.466,0.155,0.863,0.465,1.193c0.31,0.33,0.678,0.533,1.106,0.61h0.232h7.094v5.294
						h-14.245V-38.372z M11.628-26.804H-2.616v-20.407h14.244V-26.804z"/>
				</g>
				<g id="g10027" transform="translate(4634.8477,80.7901)">
					<path id="path10029" inkscape:connector-curvature="0" fill="none" stroke="#000000" stroke-width="0.592" d="M0.001,0h-31.996
						 M10.666-10.665v-31.996 M0.001,78.208h-31.996 M10.666,88.873v31.996 M99.541,78.208h31.996 M88.876,88.873v31.996 M99.541,0
						h31.996 M88.876-10.665v-31.996"/>
				</g>
			</g>
		</g>
	</g>
</g>
<g id="text2993" transform="translate(-54.489215,-280.29548)" inkscape:export-ydpi="100.01622" inkscape:export-xdpi="100.01622" inkscape:export-filename="/Users/massimomenichinelli/Dropbox/openp2pdesign.org/2013/Cava dei Tirreni/toolkit/logo.png">
	<path id="path2998" inkscape:connector-curvature="0" d="M102.586,358.348c-1.681,0-3.265-0.312-4.752-0.936
		c-1.44-0.624-2.713-1.488-3.816-2.592c-1.104-1.104-1.968-2.376-2.592-3.816c-0.624-1.488-0.937-3.072-0.937-4.752v-24.48
		c0-1.68,0.312-3.24,0.937-4.68c0.624-1.488,1.487-2.784,2.592-3.888c1.104-1.104,2.376-1.968,3.816-2.592
		c1.487-0.624,3.071-0.936,4.752-0.937c1.68,0,3.239,0.312,4.68,0.937c1.488,0.624,2.784,1.488,3.888,2.592
		c1.104,1.104,1.968,2.4,2.592,3.888c0.624,1.44,0.937,3,0.937,4.68v24.48c0,1.68-0.312,3.264-0.937,4.752
		c-0.624,1.44-1.487,2.712-2.592,3.816c-1.104,1.104-2.399,1.968-3.888,2.592C105.825,358.036,104.265,358.348,102.586,358.348
		 M102.586,316.588c-1.44,0-2.664,0.504-3.673,1.512c-1.008,1.008-1.512,2.232-1.512,3.672v24.48c0,1.44,0.504,2.664,1.512,3.672
		c1.009,1.008,2.232,1.512,3.673,1.512c1.439,0,2.663-0.504,3.672-1.512c1.008-1.008,1.512-2.232,1.512-3.672v-24.48
		c0-1.44-0.504-2.664-1.512-3.672C105.249,317.092,104.025,316.588,102.586,316.588"/>
	<path id="path3000" inkscape:connector-curvature="0" d="M124.622,372.532c-0.912,0-1.68-0.312-2.304-0.936
		s-0.937-1.392-0.937-2.304V326.38c0-0.912,0.312-1.68,0.937-2.304s1.392-0.936,2.304-0.936h7.2c1.439,0,2.784,0.288,4.032,0.864
		c1.296,0.528,2.399,1.272,3.312,2.232c0.96,0.912,1.704,2.016,2.232,3.312c0.575,1.248,0.863,2.592,0.863,4.032v13.824
		c0,1.44-0.288,2.808-0.863,4.104c-0.528,1.248-1.272,2.352-2.232,3.312c-0.912,0.912-2.016,1.632-3.312,2.16
		c-1.248,0.576-2.593,0.864-4.032,0.864h-3.96v11.448c0,0.912-0.312,1.68-0.937,2.304S125.534,372.532,124.622,372.532
		 M135.782,333.58c0-1.104-0.384-2.04-1.152-2.808c-0.768-0.768-1.704-1.152-2.808-1.152h-3.96v21.744h3.96
		c1.104,0,2.04-0.384,2.808-1.152c0.769-0.768,1.152-1.704,1.152-2.808V333.58"/>
	<path id="path3002" inkscape:connector-curvature="0" d="M154.982,357.339c-2.016-0.816-3.6-2.088-4.752-3.816
		s-1.729-3.672-1.729-5.832v-14.4c0-1.44,0.265-2.784,0.792-4.032c0.576-1.296,1.32-2.4,2.232-3.312
		c0.96-0.96,2.064-1.704,3.312-2.232c1.296-0.576,2.663-0.864,4.104-0.864s2.784,0.288,4.032,0.864
		c1.296,0.528,2.399,1.272,3.312,2.232c0.96,0.912,1.704,2.016,2.232,3.312c0.576,1.248,0.864,2.592,0.864,4.032v7.2
		c0,0.912-0.312,1.68-0.937,2.304s-1.392,0.936-2.304,0.936h-11.16v3.96c0,0.816,0.216,1.56,0.648,2.232
		c0.432,0.624,1.031,1.104,1.8,1.44c0.768,0.288,1.536,0.36,2.304,0.216s1.44-0.504,2.016-1.08c0.624-0.672,1.368-1.008,2.232-1.008
		c0.912,0,1.704,0.336,2.376,1.008c0.624,0.672,0.936,1.44,0.936,2.304c0,0.864-0.312,1.632-0.936,2.304
		c-1.536,1.488-3.336,2.424-5.4,2.808C158.942,358.348,156.95,358.156,154.982,357.339 M158.942,329.332
		c-1.104,0-2.04,0.384-2.808,1.152c-0.769,0.768-1.152,1.704-1.152,2.808v3.96h7.92v-3.96c0-1.104-0.384-2.04-1.152-2.808
		C160.982,329.716,160.046,329.332,158.942,329.332"/>
	<path id="path3004" inkscape:connector-curvature="0" d="M179.044,358.131c-0.912,0-1.68-0.312-2.304-0.936
		s-0.937-1.392-0.937-2.304V326.38c0-0.912,0.312-1.68,0.937-2.304s1.392-0.936,2.304-0.936h7.2c1.439,0,2.784,0.288,4.032,0.864
		c1.296,0.528,2.399,1.272,3.312,2.232c0.96,0.912,1.704,2.016,2.232,3.312c0.575,1.248,0.863,2.592,0.863,4.032v21.312
		c0,0.912-0.336,1.68-1.008,2.304c-0.624,0.624-1.368,0.936-2.231,0.936c-0.912,0-1.681-0.312-2.305-0.936s-0.936-1.392-0.936-2.304
		V333.58c0-1.104-0.384-2.04-1.152-2.808c-0.768-0.768-1.704-1.152-2.808-1.152h-3.96v25.272c0,0.912-0.336,1.68-1.008,2.304
		C180.652,357.82,179.908,358.131,179.044,358.131"/>
	<path id="path3006" inkscape:connector-curvature="0" d="M221.09,358.348c-0.96,0-1.776-0.336-2.448-1.008
		c-0.672-0.672-1.008-1.488-1.008-2.448v-41.76c0-0.815,0.24-1.536,0.72-2.16c0.48-0.624,1.128-1.032,1.944-1.224
		s1.584-0.096,2.304,0.288c0.721,0.336,1.248,0.888,1.584,1.656c0.96,2.112,1.944,4.2,2.952,6.264
		c0.816,1.824,1.729,3.768,2.736,5.832c1.008,2.016,1.92,3.912,2.735,5.688c0.816-1.776,1.704-3.672,2.664-5.688
		c1.009-2.064,1.92-4.008,2.736-5.832c0.96-2.064,1.944-4.152,2.952-6.264c0.384-0.768,0.912-1.32,1.584-1.656
		c0.72-0.384,1.488-0.48,2.304-0.288c0.816,0.192,1.464,0.6,1.944,1.224c0.527,0.624,0.792,1.344,0.792,2.16v41.76
		c0,0.96-0.336,1.776-1.008,2.448c-0.673,0.672-1.488,1.008-2.448,1.008s-1.776-0.336-2.448-1.008
		c-0.672-0.672-1.008-1.488-1.008-2.448v-26.28c-0.624,1.296-1.224,2.568-1.8,3.816s-1.104,2.352-1.584,3.312
		c-0.528,1.152-1.057,2.256-1.584,3.312c-0.288,0.624-0.721,1.128-1.296,1.512c-0.528,0.336-1.128,0.504-1.801,0.504
		c-1.487,0-2.544-0.672-3.168-2.016c-0.527-1.056-1.056-2.16-1.584-3.312c-0.479-0.96-1.008-2.064-1.584-3.312
		c-0.575-1.248-1.151-2.52-1.728-3.816v26.28c0,0.96-0.336,1.776-1.008,2.448C222.867,358.012,222.05,358.348,221.09,358.348"/>
	<path id="path3008" inkscape:connector-curvature="0" d="M260.873,357.339c-2.016-0.816-3.6-2.088-4.752-3.816
		s-1.729-3.672-1.729-5.832v-14.4c0-1.44,0.265-2.784,0.792-4.032c0.576-1.296,1.32-2.4,2.232-3.312
		c0.96-0.96,2.064-1.704,3.312-2.232c1.296-0.576,2.663-0.864,4.104-0.864s2.784,0.288,4.032,0.864
		c1.296,0.528,2.399,1.272,3.312,2.232c0.96,0.912,1.704,2.016,2.232,3.312c0.576,1.248,0.864,2.592,0.864,4.032v7.2
		c0,0.912-0.312,1.68-0.937,2.304s-1.392,0.936-2.304,0.936h-11.16v3.96c0,0.816,0.216,1.56,0.648,2.232
		c0.432,0.624,1.031,1.104,1.8,1.44c0.768,0.288,1.536,0.36,2.304,0.216s1.44-0.504,2.016-1.08c0.624-0.672,1.368-1.008,2.232-1.008
		c0.912,0,1.704,0.336,2.376,1.008c0.624,0.672,0.936,1.44,0.937,2.304c-0.001,0.864-0.312,1.632-0.937,2.304
		c-1.536,1.488-3.336,2.424-5.4,2.808C264.833,358.348,262.84,358.156,260.873,357.339 M264.833,329.332
		c-1.104,0-2.04,0.384-2.808,1.152c-0.769,0.768-1.152,1.704-1.152,2.808v3.96h7.92v-3.96c0-1.104-0.384-2.04-1.152-2.808
		C266.873,329.716,265.937,329.332,264.833,329.332"/>
	<path id="path3010" inkscape:connector-curvature="0" d="M281.766,329.62c-0.912,0-1.68-0.312-2.304-0.936
		s-0.937-1.392-0.937-2.304c0-0.912,0.312-1.68,0.937-2.304s1.392-0.936,2.304-0.936h2.52v-11.448c0-0.912,0.312-1.68,0.937-2.304
		s1.392-0.936,2.304-0.936s1.68,0.312,2.304,0.936s0.937,1.392,0.937,2.304v11.448h3.96c0.912,0,1.68,0.312,2.304,0.936
		s0.937,1.392,0.937,2.304c0,0.912-0.312,1.68-0.937,2.304s-1.392,0.936-2.304,0.936h-3.96v18.072c0,1.104,0.384,2.04,1.152,2.808
		c0.768,0.768,1.703,1.152,2.808,1.152c0.912,0,1.68,0.312,2.304,0.936s0.937,1.392,0.937,2.304s-0.312,1.68-0.937,2.304
		s-1.392,0.936-2.304,0.936c-1.44,0-2.808-0.288-4.104-0.864c-1.248-0.528-2.352-1.248-3.312-2.16
		c-0.912-0.96-1.656-2.064-2.232-3.312c-0.527-1.296-0.792-2.664-0.792-4.104V329.62H281.766L281.766,329.62"/>
	<path id="path3012" inkscape:connector-curvature="0" d="M314.589,336.964v-3.816c0-0.768-0.217-1.464-0.648-2.088
		c-0.432-0.672-1.008-1.152-1.728-1.44c-0.721-0.288-1.465-0.36-2.232-0.216c-0.768,0.144-1.416,0.504-1.944,1.08
		c-0.624,0.624-1.392,0.936-2.304,0.936c-0.864,0-1.607-0.312-2.231-0.936c-0.673-0.672-1.009-1.44-1.009-2.304
		c0-0.864,0.336-1.632,1.009-2.304c1.487-1.488,3.239-2.424,5.256-2.808c2.016-0.432,3.983-0.24,5.903,0.576
		c1.969,0.816,3.528,2.088,4.681,3.816c1.151,1.68,1.728,3.576,1.728,5.688v21.456c0,0.912-0.312,1.68-0.936,2.304
		s-1.393,0.936-2.305,0.936h-7.199c-1.44,0-2.809-0.288-4.104-0.864c-1.248-0.528-2.352-1.248-3.312-2.16
		c-0.912-0.96-1.656-2.064-2.232-3.312c-0.528-1.296-0.792-2.664-0.792-4.104s0.264-2.784,0.792-4.032
		c0.576-1.296,1.32-2.4,2.232-3.312c0.96-0.96,2.063-1.704,3.312-2.232c1.296-0.576,2.664-0.864,4.104-0.864H314.589
		 M310.629,343.443c-1.104,0-2.04,0.384-2.809,1.152c-0.768,0.769-1.151,1.704-1.151,2.808s0.384,2.04,1.151,2.808
		c0.769,0.768,1.704,1.152,2.809,1.152h3.96v-7.92H310.629"/>
	<path id="path3014" inkscape:connector-curvature="0" d="M340.261,309.964c1.681,0,3.24,0.312,4.681,0.936
		c1.487,0.625,2.783,1.488,3.888,2.592c1.104,1.104,1.968,2.4,2.592,3.888c0.624,1.44,0.937,3,0.937,4.68v23.904
		c0,1.68-0.312,3.264-0.937,4.752c-0.624,1.44-1.488,2.712-2.592,3.816c-1.104,1.104-2.4,1.968-3.888,2.592
		c-1.44,0.624-3,0.936-4.681,0.936h-8.64c-0.96,0-1.776-0.336-2.448-1.008c-0.672-0.672-1.008-1.488-1.008-2.448V313.42
		c0-0.96,0.336-1.776,1.008-2.448s1.488-1.008,2.448-1.008H340.261 M345.446,322.06c0-1.44-0.504-2.664-1.513-3.672
		c-1.008-1.008-2.231-1.512-3.672-1.512h-5.184v34.272h5.184c1.44,0,2.664-0.504,3.672-1.512c1.009-1.008,1.513-2.232,1.513-3.672
		V322.06"/>
	<path id="path3016" inkscape:connector-curvature="0" d="M364.794,357.339c-2.016-0.816-3.6-2.088-4.752-3.816
		s-1.729-3.672-1.729-5.832v-14.4c0-1.44,0.265-2.784,0.792-4.032c0.576-1.296,1.32-2.4,2.232-3.312
		c0.96-0.96,2.064-1.704,3.312-2.232c1.296-0.576,2.663-0.864,4.104-0.864s2.784,0.288,4.032,0.864
		c1.296,0.528,2.399,1.272,3.312,2.232c0.96,0.912,1.704,2.016,2.232,3.312c0.576,1.248,0.864,2.592,0.864,4.032v7.2
		c0,0.912-0.312,1.68-0.937,2.304s-1.392,0.936-2.304,0.936h-11.16v3.96c0,0.816,0.216,1.56,0.648,2.232
		c0.432,0.624,1.031,1.104,1.8,1.44c0.768,0.288,1.536,0.36,2.304,0.216s1.44-0.504,2.016-1.08c0.624-0.672,1.368-1.008,2.232-1.008
		c0.912,0,1.704,0.336,2.376,1.008c0.624,0.672,0.936,1.44,0.936,2.304c0,0.864-0.312,1.632-0.936,2.304
		c-1.536,1.488-3.336,2.424-5.4,2.808C368.754,358.348,366.762,358.156,364.794,357.339 M368.754,329.332
		c-1.104,0-2.04,0.384-2.808,1.152c-0.769,0.768-1.152,1.704-1.152,2.808v3.96h7.92v-3.96c0-1.104-0.384-2.04-1.152-2.808
		C370.794,329.716,369.858,329.332,368.754,329.332"/>
	<path id="path3018" inkscape:connector-curvature="0" d="M395.408,350.715c0.864-0.72,1.248-1.656,1.152-2.808
		c-0.096-1.2-0.576-2.088-1.44-2.664l-6.768-4.68c-1.2-0.864-2.16-1.92-2.88-3.168c-0.721-1.296-1.128-2.688-1.225-4.176
		c-0.096-1.488,0.12-2.904,0.648-4.248c0.576-1.392,1.416-2.592,2.52-3.6c1.104-0.96,2.353-1.656,3.744-2.088
		c1.393-0.432,2.832-0.528,4.32-0.288c1.439,0.24,2.76,0.768,3.96,1.584s2.184,1.872,2.952,3.168
		c0.432,0.768,0.527,1.584,0.288,2.448c-0.192,0.864-0.696,1.512-1.513,1.944c-0.768,0.432-1.584,0.552-2.447,0.36
		c-0.864-0.24-1.513-0.744-1.944-1.512c-0.528-0.912-1.296-1.44-2.304-1.584c-0.96-0.192-1.849,0.072-2.664,0.792
		c-0.816,0.672-1.176,1.536-1.08,2.592c0.096,1.008,0.552,1.824,1.368,2.448l6.695,4.68c1.248,0.912,2.232,2.016,2.952,3.312
		c0.769,1.296,1.2,2.712,1.296,4.248c0.097,1.536-0.144,3-0.72,4.392c-0.528,1.392-1.368,2.616-2.52,3.672
		c-1.104,1.008-2.376,1.728-3.816,2.16c-1.44,0.432-2.928,0.528-4.464,0.288c-1.536-0.24-2.928-0.768-4.176-1.584
		c-1.2-0.864-2.185-1.968-2.952-3.312c-0.433-0.768-0.552-1.584-0.36-2.448c0.24-0.864,0.744-1.512,1.513-1.944
		c0.815-0.432,1.655-0.528,2.52-0.288c0.864,0.192,1.512,0.672,1.944,1.44c0.527,1.008,1.367,1.584,2.52,1.728
		C393.584,351.772,394.544,351.484,395.408,350.715"/>
	<path id="path3020" inkscape:connector-curvature="0" d="M412.481,319.252c-1.104,0-2.04-0.384-2.808-1.152
		c-0.769-0.768-1.152-1.704-1.152-2.808s0.384-2.04,1.152-2.808c0.768-0.768,1.703-1.152,2.808-1.152
		c1.104,0,2.04,0.384,2.808,1.152c0.769,0.768,1.152,1.704,1.152,2.808s-0.384,2.04-1.152,2.808
		C414.521,318.868,413.585,319.252,412.481,319.252 M415.721,354.892c0,0.912-0.312,1.68-0.937,2.304s-1.392,0.936-2.304,0.936
		s-1.68-0.312-2.304-0.936s-0.937-1.392-0.937-2.304v-28.8c0-0.912,0.312-1.68,0.937-2.304s1.392-0.936,2.304-0.936
		s1.68,0.312,2.304,0.936s0.937,1.392,0.937,2.304V354.892"/>
	<path id="path3022" inkscape:connector-curvature="0" d="M433.161,357.844c-1.44,0-2.808-0.288-4.104-0.864
		c-1.248-0.528-2.353-1.248-3.312-2.16c-0.912-0.96-1.656-2.064-2.232-3.312c-0.527-1.296-0.792-2.664-0.792-4.104V333.58
		c0-1.44,0.265-2.784,0.792-4.032c0.576-1.296,1.32-2.4,2.232-3.312c0.96-0.96,2.064-1.704,3.312-2.232
		c1.296-0.576,2.663-0.864,4.104-0.864h7.2c0.912,0,1.68,0.312,2.304,0.936s0.937,1.392,0.937,2.304v35.712
		c0,2.16-0.576,4.104-1.729,5.832c-1.152,1.728-2.712,3-4.68,3.816c-2.017,0.816-4.057,1.008-6.12,0.576
		c-2.016-0.384-3.769-1.32-5.256-2.808c-0.672-0.672-1.008-1.44-1.008-2.304c0-0.864,0.336-1.632,1.008-2.304
		c0.624-0.672,1.368-1.008,2.231-1.008c0.912,0,1.681,0.336,2.305,1.008c0.575,0.576,1.248,0.936,2.016,1.08
		c0.816,0.144,1.584,0.072,2.304-0.216c0.769-0.336,1.368-0.84,1.8-1.512c0.433-0.624,0.648-1.344,0.648-2.16v-4.248
		L433.161,357.844 M433.161,329.62c-1.104,0-2.04,0.384-2.808,1.152c-0.769,0.768-1.152,1.704-1.152,2.808v13.824
		c0,1.104,0.384,2.04,1.152,2.808c0.768,0.768,1.703,1.152,2.808,1.152h3.96V329.62H433.161"/>
	<path id="path3024" inkscape:connector-curvature="0" d="M454.387,358.131c-0.912,0-1.68-0.312-2.304-0.936
		s-0.937-1.392-0.937-2.304V326.38c0-0.912,0.312-1.68,0.937-2.304s1.392-0.936,2.304-0.936h7.2c1.439,0,2.784,0.288,4.032,0.864
		c1.296,0.528,2.399,1.272,3.312,2.232c0.96,0.912,1.704,2.016,2.232,3.312c0.575,1.248,0.863,2.592,0.863,4.032v21.312
		c0,0.912-0.336,1.68-1.008,2.304c-0.624,0.624-1.368,0.936-2.231,0.936c-0.912,0-1.681-0.312-2.305-0.936s-0.936-1.392-0.936-2.304
		V333.58c0-1.104-0.384-2.04-1.152-2.808c-0.768-0.768-1.704-1.152-2.808-1.152h-3.96v25.272c0,0.912-0.336,1.68-1.008,2.304
		C455.996,357.82,455.252,358.131,454.387,358.131"/>
</g>
<text transform="matrix(1 0 0 1 498.0231 77.9527)" font-family="'TitilliumText25L-600wt'" font-size="40">Road map</text>
<text transform="matrix(1 0 0 1 425.1969 77.9527)" font-family="'TitilliumText25L-600wt'" font-size="20">0.1</text>
<rect id="rect25259" x="35.433" y="113.386" fill="#F6F6F6" stroke="#000000" stroke-width="1.7908" stroke-linejoin="round" width="1417.323" height="832.676"/>
<text transform="matrix(1 0 0 1 35.4332 1008.9283)" font-family="'TitilliumText25L-600wt'" font-size="14">Designed by:</text>
<text transform="matrix(1 0 0 1 36.7633 973.4957)" font-family="'TitilliumText25L-600wt'" font-size="14">Project:</text>
<text transform="matrix(1 0 0 1 407.4806 973.4957)" font-family="'TitilliumText25L-600wt'" font-size="14">Link:</text>
<text transform="matrix(1 0 0 1 406.6774 1008.9283)" font-family="'TitilliumText25L-600wt'" font-size="14">Designed for:</text>
<path id="path25277" sodipodi:nodetypes="cc" inkscape:connector-curvature="0" fill="none" d="M90.619,973.496
	c246.404,0,299.145,0,299.145,0"/>
<text transform="matrix(1 0 0 1 102.5914 973.4957)"><tspan x="0" y="0" font-family="'MyriadPro-Regular'" font-size="12">U</tspan><tspan x="7.771" y="0" font-family="'MyriadPro-Regular'" font-size="12">n</tspan><tspan x="14.423" y="0" font-family="'MyriadPro-Regular'" font-size="12">o</tspan><tspan x="21.021" y="0" font-family="'MyriadPro-Regular'" font-size="12">r</tspan><tspan x="24.952" y="0" font-family="'MyriadPro-Regular'" font-size="12">g</tspan><tspan x="31.662" y="0" font-family="'MyriadPro-Regular'" font-size="12">a</tspan><tspan x="37.457" y="0" font-family="'MyriadPro-Regular'" font-size="12">n</tspan><tspan x="44.101" y="0" font-family="'MyriadPro-Regular'" font-size="12">i</tspan><tspan x="46.915" y="0" font-family="'MyriadPro-Regular'" font-size="12">z</tspan><tspan x="52.055" y="0" font-family="'MyriadPro-Regular'" font-size="12">i</tspan><tspan x="54.862" y="0" font-family="'MyriadPro-Regular'" font-size="12">n</tspan><tspan x="61.536" y="0" font-family="'MyriadPro-Regular'" font-size="12">g</tspan><tspan x="68.222" y="0" font-family="'MyriadPro-Regular'" font-size="12"> </tspan><tspan x="70.79" y="0" font-family="'MyriadPro-Regular'" font-size="12">f</tspan><tspan x="74.291" y="0" font-family="'MyriadPro-Regular'" font-size="12">o</tspan><tspan x="80.875" y="0" font-family="'MyriadPro-Regular'" font-size="12">r</tspan><tspan x="84.809" y="0" font-family="'MyriadPro-Regular'" font-size="12"> </tspan><tspan x="87.342" y="0" font-family="'MyriadPro-Regular'" font-size="12">t</tspan><tspan x="91.334" y="0" font-family="'MyriadPro-Regular'" font-size="12">h</tspan><tspan x="97.992" y="0" font-family="'MyriadPro-Regular'" font-size="12">e</tspan><tspan x="103.99" y="0" font-family="'MyriadPro-Regular'" font-size="12"> </tspan><tspan x="106.547" y="0" font-family="'MyriadPro-Regular'" font-size="12">u</tspan><tspan x="113.169" y="0" font-family="'MyriadPro-Regular'" font-size="12">n</tspan><tspan x="119.833" y="0" font-family="'MyriadPro-Regular'" font-size="12">o</tspan><tspan x="126.42" y="0" font-family="'MyriadPro-Regular'" font-size="12">r</tspan><tspan x="130.355" y="0" font-family="'MyriadPro-Regular'" font-size="12">g</tspan><tspan x="137.043" y="0" font-family="'MyriadPro-Regular'" font-size="12">a</tspan><tspan x="142.839" y="0" font-family="'MyriadPro-Regular'" font-size="12">n</tspan><tspan x="149.517" y="0" font-family="'MyriadPro-Regular'" font-size="12">i</tspan><tspan x="152.33" y="0" font-family="'MyriadPro-Regular'" font-size="12">z</tspan><tspan x="157.457" y="0" font-family="'MyriadPro-Regular'" font-size="12">e</tspan><tspan x="163.465" y="0" font-family="'MyriadPro-Regular'" font-size="12">d</tspan></text>
<path id="path25279" sodipodi:nodetypes="cc" inkscape:connector-curvature="0" fill="none" stroke="#CFCFCF" stroke-width="1.5027" stroke-dasharray="1.5027,4.508" d="
	M442.865,973.496c298.714,0,318.946,0,318.946,0"/>
<path id="path25281" sodipodi:nodetypes="cc" inkscape:connector-curvature="0" fill="none" d="M121.691,1006.929
	c232.334,0,268.072,0,268.072,0"/>
<text transform="matrix(1 0 0 1 151.9825 1008.9293)"><tspan x="0" y="0" font-family="'MyriadPro-Regular'" font-size="12">K</tspan><tspan x="6.508" y="0" font-family="'MyriadPro-Regular'" font-size="12">a</tspan><tspan x="12.289" y="0" font-family="'MyriadPro-Regular'" font-size="12">k</tspan><tspan x="17.93" y="0" font-family="'MyriadPro-Regular'" font-size="12">e</tspan><tspan x="23.939" y="0" font-family="'MyriadPro-Regular'" font-size="12">r</tspan><tspan x="27.883" y="0" font-family="'MyriadPro-Regular'" font-size="12">u</tspan><tspan x="34.481" y="0" font-family="'MyriadPro-Regular'" font-size="12"> </tspan><tspan x="37.033" y="0" font-family="'MyriadPro-Regular'" font-size="12">A</tspan><tspan x="44.381" y="0" font-family="'MyriadPro-Regular'" font-size="12">s</tspan><tspan x="49.126" y="0" font-family="'MyriadPro-Regular'" font-size="12">a</tspan><tspan x="54.922" y="0" font-family="'MyriadPro-Regular'" font-size="12">n</tspan><tspan x="61.567" y="0" font-family="'MyriadPro-Regular'" font-size="12">o</tspan><tspan x="68.158" y="0" font-family="'MyriadPro-Regular'" font-size="12">,</tspan><tspan x="70.664" y="0" font-family="'MyriadPro-Regular'" font-size="12"> </tspan><tspan x="73.2" y="0" font-family="'MyriadPro-Regular'" font-size="12">A</tspan><tspan x="80.56" y="0" font-family="'MyriadPro-Regular'" font-size="12">n</tspan><tspan x="87.203" y="0" font-family="'MyriadPro-Regular'" font-size="12">n</tspan><tspan x="93.872" y="0" font-family="'MyriadPro-Regular'" font-size="12">a</tspan><tspan x="99.654" y="0" font-family="'MyriadPro-Regular'" font-size="12">k</tspan><tspan x="105.281" y="0" font-family="'MyriadPro-Regular'" font-size="12">e</tspan><tspan x="111.308" y="0" font-family="'MyriadPro-Regular'" font-size="12">r</tspan><tspan x="115.231" y="0" font-family="'MyriadPro-Regular'" font-size="12">t</tspan><tspan x="119.196" y="0" font-family="'MyriadPro-Regular'" font-size="12">t</tspan><tspan x="123.184" y="0" font-family="'MyriadPro-Regular'" font-size="12">u</tspan><tspan x="129.806" y="0" font-family="'MyriadPro-Regular'" font-size="12"> </tspan><tspan x="132.35" y="0" font-family="'MyriadPro-Regular'" font-size="12">A</tspan><tspan x="139.69" y="0" font-family="'MyriadPro-Regular'" font-size="12">r</tspan><tspan x="143.614" y="0" font-family="'MyriadPro-Regular'" font-size="12">a</tspan><tspan x="149.401" y="0" font-family="'MyriadPro-Regular'" font-size="12">n</tspan><tspan x="156.058" y="0" font-family="'MyriadPro-Regular'" font-size="12">k</tspan><tspan x="161.704" y="0" font-family="'MyriadPro-Regular'" font-size="12">o</tspan><tspan x="168.291" y="0" font-family="'MyriadPro-Regular'" font-size="12">,</tspan><tspan x="170.77" y="0" font-family="'MyriadPro-Regular'" font-size="12"> </tspan><tspan x="173.304" y="0" font-family="'MyriadPro-Regular'" font-size="12">V</tspan><tspan x="180.001" y="0" font-family="'MyriadPro-Regular'" font-size="12">e</tspan><tspan x="186.041" y="0" font-family="'MyriadPro-Regular'" font-size="12">l</tspan><tspan x="188.864" y="0" font-family="'MyriadPro-Regular'" font-size="12">d</tspan><tspan x="195.625" y="0" font-family="'MyriadPro-Regular'" font-size="12">e</tspan><tspan x="201.646" y="0" font-family="'MyriadPro-Regular'" font-size="12"> </tspan></text>
<path id="path25281_1_" sodipodi:nodetypes="cc" inkscape:connector-curvature="0" fill="none" d="M121.691,1023.596
	c232.334,0,268.072,0,268.072,0"/>
<text transform="matrix(1 0 0 1 151.9996 1025.5962)"><tspan x="0" y="0" font-family="'MyriadPro-Regular'" font-size="12">J</tspan><tspan x="4.434" y="0" font-family="'MyriadPro-Regular'" font-size="12">a</tspan><tspan x="10.228" y="0" font-family="'MyriadPro-Regular'" font-size="12">a</tspan><tspan x="16.022" y="0" font-family="'MyriadPro-Regular'" font-size="12">k</tspan><tspan x="21.644" y="0" font-family="'MyriadPro-Regular'" font-size="12">k</tspan><tspan x="27.267" y="0" font-family="'MyriadPro-Regular'" font-size="12">o</tspan><tspan x="33.862" y="0" font-family="'MyriadPro-Regular'" font-size="12"> </tspan><tspan x="36.406" y="0" font-family="'MyriadPro-Regular'" font-size="12">K</tspan><tspan x="42.908" y="0" font-family="'MyriadPro-Regular'" font-size="12">a</tspan><tspan x="48.701" y="0" font-family="'MyriadPro-Regular'" font-size="12">l</tspan><tspan x="51.53" y="0" font-family="'MyriadPro-Regular'" font-size="12">s</tspan><tspan x="56.273" y="0" font-family="'MyriadPro-Regular'" font-size="12">i</tspan></text>
<path id="path25301" sodipodi:nodetypes="cc" inkscape:connector-curvature="0" fill="none" stroke="#CFCFCF" stroke-width="1.3717" stroke-dasharray="1.3717,4.1152" d="
	M495.239,1008.929c232.334,0,267.929,0,267.929,0"/>
<a id="layer1" xlink:href="http://creativecommons.org/licenses/by-sa/3.0/"  transform="translate(0,2.988066e-5)" inkscape:groupmode="layer" xlink:title="CC BY-SA" inkscape:label="Layout">
	<a id="a36382" xlink:href="http://businessmodelgeneration.com/"  xlink:title="http://businessmodelgeneration.com/">
		<text transform="matrix(1.7791 0 0 1.7791 -406.8826 834.9484)" font-family="'TitilliumText25L-250wt'" font-size="10">Original development of the Business Model Canvas: BusinessModelGeneration.com</text>
	</a>
</a>
<g>
	<g>
		
			<line fill="none" stroke="#231F20" stroke-width="3" stroke-linecap="round" stroke-miterlimit="10" x1="251.234" y1="561.318" x2="253.41" y2="565.255"/>
		
			<line fill="none" stroke="#231F20" stroke-width="3" stroke-linecap="round" stroke-miterlimit="10" stroke-dasharray="9.9419,9.9419" x1="258.218" y1="573.959" x2="284.663" y2="621.818"/>
		
			<line fill="none" stroke="#231F20" stroke-width="3" stroke-linecap="round" stroke-miterlimit="10" x1="287.067" y1="626.169" x2="289.243" y2="630.109"/>
	</g>
</g>
<g>
	<g>
		
			<line fill="none" stroke="#231F20" stroke-width="3" stroke-linecap="round" stroke-miterlimit="10" x1="271.234" y1="561.318" x2="273.41" y2="565.255"/>
		
			<line fill="none" stroke="#231F20" stroke-width="3" stroke-linecap="round" stroke-miterlimit="10" stroke-dasharray="9.9419,9.9419" x1="278.218" y1="573.959" x2="304.663" y2="621.818"/>
		
			<line fill="none" stroke="#231F20" stroke-width="3" stroke-linecap="round" stroke-miterlimit="10" x1="307.067" y1="626.169" x2="309.243" y2="630.109"/>
	</g>
</g>
<g>
	<g>
		
			<line fill="none" stroke="#231F20" stroke-width="3" stroke-linecap="round" stroke-miterlimit="10" x1="291.234" y1="561.318" x2="293.41" y2="565.255"/>
		
			<line fill="none" stroke="#231F20" stroke-width="3" stroke-linecap="round" stroke-miterlimit="10" stroke-dasharray="9.9419,9.9419" x1="298.218" y1="573.959" x2="324.663" y2="621.818"/>
		
			<line fill="none" stroke="#231F20" stroke-width="3" stroke-linecap="round" stroke-miterlimit="10" x1="327.067" y1="626.169" x2="329.243" y2="630.109"/>
	</g>
</g>
<g>
	<g>
		
			<line fill="none" stroke="#231F20" stroke-width="3" stroke-linecap="round" stroke-miterlimit="10" x1="311.234" y1="561.318" x2="313.41" y2="565.255"/>
		
			<line fill="none" stroke="#231F20" stroke-width="3" stroke-linecap="round" stroke-miterlimit="10" stroke-dasharray="9.9419,9.9419" x1="318.218" y1="573.959" x2="344.663" y2="621.818"/>
		
			<line fill="none" stroke="#231F20" stroke-width="3" stroke-linecap="round" stroke-miterlimit="10" x1="347.067" y1="626.169" x2="349.243" y2="630.109"/>
	</g>
</g>
<g>
	<g>
		
			<line fill="none" stroke="#231F20" stroke-width="3" stroke-linecap="round" stroke-miterlimit="10" x1="331.234" y1="561.318" x2="333.41" y2="565.255"/>
		
			<line fill="none" stroke="#231F20" stroke-width="3" stroke-linecap="round" stroke-miterlimit="10" stroke-dasharray="9.9419,9.9419" x1="338.218" y1="573.959" x2="364.663" y2="621.818"/>
		
			<line fill="none" stroke="#231F20" stroke-width="3" stroke-linecap="round" stroke-miterlimit="10" x1="367.067" y1="626.169" x2="369.243" y2="630.109"/>
	</g>
</g>
<g>
	<g>
		
			<line fill="none" stroke="#231F20" stroke-width="3" stroke-linecap="round" stroke-miterlimit="10" x1="351.234" y1="561.318" x2="353.41" y2="565.255"/>
		
			<line fill="none" stroke="#231F20" stroke-width="3" stroke-linecap="round" stroke-miterlimit="10" stroke-dasharray="9.9419,9.9419" x1="358.218" y1="573.959" x2="384.663" y2="621.818"/>
		
			<line fill="none" stroke="#231F20" stroke-width="3" stroke-linecap="round" stroke-miterlimit="10" x1="387.067" y1="626.169" x2="389.243" y2="630.109"/>
	</g>
</g>
<g>
	<g>
		
			<line fill="none" stroke="#231F20" stroke-width="3" stroke-linecap="round" stroke-miterlimit="10" x1="371.234" y1="561.318" x2="373.41" y2="565.255"/>
		
			<line fill="none" stroke="#231F20" stroke-width="3" stroke-linecap="round" stroke-miterlimit="10" stroke-dasharray="9.9419,9.9419" x1="378.218" y1="573.959" x2="404.663" y2="621.818"/>
		
			<line fill="none" stroke="#231F20" stroke-width="3" stroke-linecap="round" stroke-miterlimit="10" x1="407.067" y1="626.169" x2="409.243" y2="630.109"/>
	</g>
</g>
<rect x="218.333" y="552.334" fill="#F6F6F6" width="194.667" height="15.334"/>
<rect x="268.333" y="623.002" fill="#F6F6F6" width="194.667" height="15.332"/>
<g>
	<path fill="none" stroke="#231F20" stroke-width="3" stroke-miterlimit="10" d="M1220.935,529.55c0-0.006,0.001-0.016,0.002-0.02
		c0,0,0.063-0.32,0.063-0.486c0-4.443-14.178-8.045-31.667-8.045c-17.488,0-31.666,3.602-31.666,8.045
		c0,0.238,0.126,0.697,0.126,0.697c0.002,0.006,0.003,0.016,0.003,0.02v20.891c0,0.004-0.001,0.014-0.003,0.02
		c0,0-0.126,0.459-0.126,0.697c0,4.443,14.178,8.047,31.666,8.047c17.489,0,31.667-3.604,31.667-8.047
		c0-0.166-0.063-0.486-0.063-0.486c-0.001-0.004-0.002-0.014-0.002-0.02V529.55z"/>
</g>
<ellipse fill="none" stroke="#231F20" stroke-width="3" stroke-miterlimit="10" cx="1189.334" cy="529.044" rx="31.667" ry="8.047"/>
<g>
	<g>
		<path fill="#FFFFFF" d="M1201.14,470.136c-0.003-0.005-0.006-0.014-0.007-0.019l-1.694-8.845c-0.001-0.005-0.002-0.015-0.001-0.02
			c0,0,0.015-0.142,0.001-0.214c-0.557-2.907-10.279-3.487-21.716-1.298c-11.435,2.189-20.255,6.318-19.698,9.226
			c0.027,0.143,0.16,0.398,0.16,0.398c0.003,0.005,0.006,0.014,0.007,0.019l1.612,8.421c0.001,0.006,0.002,0.015,0.001,0.02
			c0,0-0.029,0.29-0.002,0.435c0.557,2.906,10.278,3.486,21.714,1.298c11.437-2.189,20.257-6.32,19.7-9.227
			C1201.204,470.259,1201.14,470.136,1201.14,470.136z"/>
		<path fill="none" stroke="#231F20" stroke-width="3" stroke-miterlimit="10" d="M1201.14,470.136
			c-0.003-0.005-0.006-0.014-0.007-0.019l-1.694-8.845c-0.001-0.005-0.002-0.015-0.001-0.02c0,0,0.015-0.142,0.001-0.214
			c-0.557-2.907-10.279-3.487-21.716-1.298c-11.435,2.189-20.255,6.318-19.698,9.226c0.027,0.143,0.16,0.398,0.16,0.398
			c0.003,0.005,0.006,0.014,0.007,0.019l1.612,8.421c0.001,0.006,0.002,0.015,0.001,0.02c0,0-0.029,0.29-0.002,0.435
			c0.557,2.906,10.278,3.486,21.714,1.298c11.437-2.189,20.257-6.32,19.7-9.227C1201.204,470.259,1201.14,470.136,1201.14,470.136z"
			/>
	</g>
	<path fill="none" stroke="#231F20" stroke-width="3" stroke-miterlimit="10" d="M1184.589,494.97l-1.887-7.087l-72.799,19.373
		l0.003,0.009c-0.005,0.001-0.009,0-0.014,0.002c-2.021,0.538-3.236,2.559-2.717,4.513c0.521,1.953,2.579,3.104,4.6,2.566
		c0.005-0.001,0.009-0.003,0.014-0.004v0.001L1184.589,494.97z"/>
	
		<ellipse transform="matrix(0.9822 -0.188 0.188 0.9822 -68.1263 230.4372)" fill="none" stroke="#231F20" stroke-width="3" stroke-miterlimit="10" cx="1180.51" cy="474.294" rx="21.083" ry="5.358"/>
	<g>
		<path fill="#FFFFFF" d="M1208.287,494.846c-0.023-0.121-0.113-0.342-0.113-0.342c-0.002-0.006-0.005-0.014-0.006-0.02
			l-2.961-15.473c-0.001-0.006-0.002-0.015-0.002-0.02c0,0,0.002-0.238-0.021-0.359c-0.618-3.229-11.416-3.873-24.119-1.44
			c-12.701,2.431-22.498,7.018-21.88,10.246c0.033,0.174,0.188,0.49,0.188,0.49c0.003,0.005,0.006,0.013,0.007,0.019l2.902,15.162
			c0.001,0.006,0.002,0.015,0.001,0.02c0,0-0.027,0.349,0.006,0.522c0.617,3.228,11.416,3.873,24.117,1.441
			C1199.108,502.661,1208.905,498.073,1208.287,494.846z"/>
		<path fill="none" stroke="#231F20" stroke-width="3" stroke-miterlimit="10" d="M1208.287,494.846
			c-0.023-0.121-0.113-0.342-0.113-0.342c-0.002-0.006-0.005-0.014-0.006-0.02l-2.961-15.473c-0.001-0.006-0.002-0.015-0.002-0.02
			c0,0,0.002-0.238-0.021-0.359c-0.618-3.229-11.416-3.873-24.119-1.44c-12.701,2.431-22.498,7.018-21.88,10.246
			c0.033,0.174,0.188,0.49,0.188,0.49c0.003,0.005,0.006,0.013,0.007,0.019l2.902,15.162c0.001,0.006,0.002,0.015,0.001,0.02
			c0,0-0.027,0.349,0.006,0.522c0.617,3.228,11.416,3.873,24.117,1.441C1199.108,502.661,1208.905,498.073,1208.287,494.846z"/>
	</g>
	
		<ellipse transform="matrix(0.9822 -0.188 0.188 0.9822 -72.7297 231.7635)" fill="none" stroke="#231F20" stroke-width="3" stroke-miterlimit="10" cx="1185.288" cy="499.249" rx="23.417" ry="5.95"/>
	<g>
		<path fill="#FFFFFF" d="M1209.264,512.573c-0.003-0.005-0.006-0.013-0.007-0.019l-1.694-8.85c-0.001-0.006-0.001-0.015-0.001-0.02
			c0,0,0.015-0.138,0.001-0.209c-0.557-2.907-10.278-3.487-21.716-1.298c-11.435,2.189-20.255,6.318-19.698,9.226
			c0.027,0.143,0.16,0.397,0.16,0.397c0.003,0.005,0.006,0.013,0.007,0.019l1.612,8.421c0.001,0.006,0.002,0.016,0.001,0.02
			c0,0-0.029,0.289-0.002,0.434c0.557,2.906,10.278,3.488,21.714,1.299c11.437-2.189,20.257-6.32,19.7-9.226
			C1209.328,512.696,1209.264,512.573,1209.264,512.573z"/>
		<path fill="none" stroke="#231F20" stroke-width="3" stroke-miterlimit="10" d="M1209.264,512.573
			c-0.003-0.005-0.006-0.013-0.007-0.019l-1.694-8.85c-0.001-0.006-0.001-0.015-0.001-0.02c0,0,0.015-0.138,0.001-0.209
			c-0.557-2.907-10.278-3.487-21.716-1.298c-11.435,2.189-20.255,6.318-19.698,9.226c0.027,0.143,0.16,0.397,0.16,0.397
			c0.003,0.005,0.006,0.013,0.007,0.019l1.612,8.421c0.001,0.006,0.002,0.016,0.001,0.02c0,0-0.029,0.289-0.002,0.434
			c0.557,2.906,10.278,3.488,21.714,1.299c11.437-2.189,20.257-6.32,19.7-9.226C1209.328,512.696,1209.264,512.573,1209.264,512.573
			z"/>
	</g>
	
		<ellipse transform="matrix(0.9822 -0.188 0.188 0.9822 -75.9513 232.6786)" fill="#231F20" stroke="#231F20" stroke-width="3" stroke-miterlimit="10" cx="1188.634" cy="516.731" rx="21.083" ry="5.358"/>
</g>
<line fill="none" stroke="#231F20" stroke-width="3" stroke-linecap="round" stroke-miterlimit="10" x1="1249.712" y1="508.627" x2="1242.596" y2="512.547"/>
<line fill="none" stroke="#231F20" stroke-width="3" stroke-linecap="round" stroke-miterlimit="10" x1="1237.014" y1="495.511" x2="1232.81" y2="502.465"/>
<line fill="none" stroke="#231F20" stroke-width="3" stroke-linecap="round" stroke-miterlimit="10" x1="1219.552" y1="492.111" x2="1219.388" y2="500.235"/>
<line fill="none" stroke="#231F20" stroke-width="3" stroke-linecap="round" stroke-miterlimit="10" x1="1253.819" y1="526.015" x2="1245.695" y2="525.851"/>
<line fill="none" stroke="#231F20" stroke-width="3" stroke-linecap="round" stroke-miterlimit="10" x1="1247.363" y1="542.591" x2="1240.408" y2="538.388"/>
<g>
	<g>
		
			<line fill="none" stroke="#231F20" stroke-width="3" stroke-linecap="round" stroke-miterlimit="10" x1="700.607" y1="446.938" x2="700.607" y2="454.249"/>
		
			<line fill="none" stroke="#231F20" stroke-width="3" stroke-linecap="round" stroke-miterlimit="10" x1="684.757" y1="451.251" x2="688.414" y2="457.583"/>
		
			<line fill="none" stroke="#231F20" stroke-width="3" stroke-linecap="round" stroke-miterlimit="10" x1="674.497" y1="463.537" x2="680.828" y2="467.193"/>
		
			<line fill="none" stroke="#231F20" stroke-width="3" stroke-linecap="round" stroke-miterlimit="10" x1="716.093" y1="451.251" x2="712.439" y2="457.583"/>
		
			<line fill="none" stroke="#231F20" stroke-width="3" stroke-linecap="round" stroke-miterlimit="10" x1="726.354" y1="463.537" x2="720.022" y2="467.193"/>
		<g>
			
				<line fill="none" stroke="#231F20" stroke-width="3" stroke-linecap="round" stroke-miterlimit="10" x1="696.711" y1="511.572" x2="704.129" y2="511.572"/>
			
				<line fill="none" stroke="#231F20" stroke-width="3" stroke-linecap="round" stroke-miterlimit="10" x1="694.535" y1="507.355" x2="706.307" y2="507.355"/>
			
				<line fill="none" stroke="#231F20" stroke-width="3" stroke-linecap="round" stroke-miterlimit="10" x1="694.535" y1="503.138" x2="706.307" y2="503.138"/>
			<path fill="none" stroke="#231F20" stroke-width="3" stroke-linecap="round" stroke-miterlimit="10" d="M705.48,499.268
				c0-3.271,4.498-10.687,6.729-13.53c2.753-3.506,4.065-6.526,4.065-10.602c0-8.757-7.099-15.855-15.854-15.855h-0.001
				c-8.757,0-15.855,7.098-15.855,15.855c0,4.076,1.312,7.096,4.065,10.602c2.232,2.844,6.73,10.26,6.73,13.53"/>
		</g>
	</g>
	<g>
		
			<line fill="none" stroke="#231F20" stroke-width="3" stroke-linecap="round" stroke-miterlimit="10" x1="749.586" y1="485.799" x2="749.586" y2="493.11"/>
		
			<line fill="none" stroke="#231F20" stroke-width="3" stroke-linecap="round" stroke-miterlimit="10" x1="733.737" y1="490.113" x2="737.393" y2="496.444"/>
		
			<line fill="none" stroke="#231F20" stroke-width="3" stroke-linecap="round" stroke-miterlimit="10" x1="723.476" y1="502.398" x2="729.807" y2="506.055"/>
		
			<line fill="none" stroke="#231F20" stroke-width="3" stroke-linecap="round" stroke-miterlimit="10" x1="765.074" y1="490.113" x2="761.418" y2="496.444"/>
		
			<line fill="none" stroke="#231F20" stroke-width="3" stroke-linecap="round" stroke-miterlimit="10" x1="775.335" y1="502.398" x2="769.003" y2="506.055"/>
		<g>
			
				<line fill="none" stroke="#231F20" stroke-width="3" stroke-linecap="round" stroke-miterlimit="10" x1="745.692" y1="550.435" x2="753.11" y2="550.435"/>
			
				<line fill="none" stroke="#231F20" stroke-width="3" stroke-linecap="round" stroke-miterlimit="10" x1="743.514" y1="546.216" x2="755.287" y2="546.216"/>
			
				<line fill="none" stroke="#231F20" stroke-width="3" stroke-linecap="round" stroke-miterlimit="10" x1="743.514" y1="542" x2="755.287" y2="542"/>
			<path fill="none" stroke="#231F20" stroke-width="3" stroke-linecap="round" stroke-miterlimit="10" d="M754.46,538.13
				c0-3.271,4.498-10.688,6.73-13.531c2.753-3.506,4.065-6.525,4.065-10.604c0-8.756-7.099-15.854-15.855-15.854l0,0
				c-8.757,0-15.855,7.098-15.855,15.854c0,4.078,1.312,7.098,4.065,10.604c2.231,2.844,6.729,10.26,6.729,13.531"/>
		</g>
	</g>
	<g>
		
			<line fill="none" stroke="#231F20" stroke-width="3" stroke-linecap="round" stroke-miterlimit="10" x1="794.923" y1="430.342" x2="794.923" y2="437.652"/>
		
			<line fill="none" stroke="#231F20" stroke-width="3" stroke-linecap="round" stroke-miterlimit="10" x1="779.074" y1="434.655" x2="782.729" y2="440.987"/>
		
			<line fill="none" stroke="#231F20" stroke-width="3" stroke-linecap="round" stroke-miterlimit="10" x1="768.813" y1="446.94" x2="775.144" y2="450.597"/>
		
			<line fill="none" stroke="#231F20" stroke-width="3" stroke-linecap="round" stroke-miterlimit="10" x1="810.41" y1="434.655" x2="806.754" y2="440.987"/>
		
			<line fill="none" stroke="#231F20" stroke-width="3" stroke-linecap="round" stroke-miterlimit="10" x1="820.67" y1="446.94" x2="814.339" y2="450.597"/>
		<g>
			
				<line fill="none" stroke="#231F20" stroke-width="3" stroke-linecap="round" stroke-miterlimit="10" x1="791.028" y1="494.977" x2="798.446" y2="494.977"/>
			
				<line fill="none" stroke="#231F20" stroke-width="3" stroke-linecap="round" stroke-miterlimit="10" x1="788.85" y1="490.759" x2="800.624" y2="490.759"/>
			
				<line fill="none" stroke="#231F20" stroke-width="3" stroke-linecap="round" stroke-miterlimit="10" x1="788.85" y1="486.542" x2="800.624" y2="486.542"/>
			<path fill="none" stroke="#231F20" stroke-width="3" stroke-linecap="round" stroke-miterlimit="10" d="M799.796,482.672
				c0-3.271,4.498-10.687,6.729-13.53c2.753-3.506,4.065-6.526,4.065-10.603c0-8.757-7.098-15.855-15.854-15.855h-0.001
				c-8.757,0-15.855,7.098-15.855,15.855c0,4.076,1.312,7.096,4.065,10.603c2.232,2.843,6.73,10.259,6.73,13.53"/>
		</g>
	</g>
	<g>
		
			<line fill="none" stroke="#231F20" stroke-width="3" stroke-linecap="round" stroke-miterlimit="10" x1="845.12" y1="485.799" x2="845.12" y2="493.11"/>
		
			<line fill="none" stroke="#231F20" stroke-width="3" stroke-linecap="round" stroke-miterlimit="10" x1="829.27" y1="490.113" x2="832.926" y2="496.444"/>
		
			<line fill="none" stroke="#231F20" stroke-width="3" stroke-linecap="round" stroke-miterlimit="10" x1="819.009" y1="502.398" x2="825.34" y2="506.055"/>
		
			<line fill="none" stroke="#231F20" stroke-width="3" stroke-linecap="round" stroke-miterlimit="10" x1="860.606" y1="490.113" x2="856.952" y2="496.444"/>
		
			<line fill="none" stroke="#231F20" stroke-width="3" stroke-linecap="round" stroke-miterlimit="10" x1="870.868" y1="502.398" x2="864.536" y2="506.055"/>
		<g>
			
				<line fill="none" stroke="#231F20" stroke-width="3" stroke-linecap="round" stroke-miterlimit="10" x1="841.224" y1="550.435" x2="848.642" y2="550.435"/>
			
				<line fill="none" stroke="#231F20" stroke-width="3" stroke-linecap="round" stroke-miterlimit="10" x1="839.047" y1="546.216" x2="850.82" y2="546.216"/>
			
				<line fill="none" stroke="#231F20" stroke-width="3" stroke-linecap="round" stroke-miterlimit="10" x1="839.047" y1="542" x2="850.82" y2="542"/>
			<path fill="none" stroke="#231F20" stroke-width="3" stroke-linecap="round" stroke-miterlimit="10" d="M849.993,538.128
				c0-3.27,4.498-10.686,6.73-13.529c2.753-3.506,4.065-6.525,4.065-10.604c0-8.756-7.099-15.854-15.855-15.854h-0.001
				c-8.757,0-15.855,7.098-15.855,15.854c0,4.078,1.312,7.098,4.065,10.604c2.232,2.844,6.73,10.26,6.73,13.529"/>
		</g>
	</g>
	<g>
		<g>
			<path fill="none" stroke="#231F20" stroke-width="4" stroke-linecap="round" stroke-miterlimit="10" d="M868.722,483.934
				c-2.698-16.044-15.649-28.599-31.887-30.702c0.011-0.377,0.028-0.752,0.028-1.132c0-20.568-16.674-37.242-37.242-37.242
				c-6.753,0-13.08,1.806-18.541,4.948c-6.629-6.087-15.469-9.806-25.179-9.806c-17.57,0-32.289,12.171-36.209,28.541
				c-6.032-4.207-13.361-6.681-21.273-6.681c-20.569,0-37.243,16.674-37.243,37.242c0,6.295,1.568,12.222,4.325,17.421
				c-13.472,5.606-22.946,18.892-22.946,34.395c0,20.025,15.806,36.353,35.623,37.201v0.041h186.213
				c20.568,0,37.242-16.674,37.242-37.242C901.633,501.815,887.249,486.081,868.722,483.934z"/>
		</g>
	</g>
</g>
<g>
	<g>
		<path fill="#231F20" d="M415.166,483.934c-2.698-16.044-15.649-28.599-31.887-30.702c0.011-0.377,0.029-0.752,0.029-1.132
			c0-20.568-16.674-37.242-37.242-37.242c-6.753,0-13.08,1.806-18.541,4.948c-6.63-6.087-15.469-9.806-25.179-9.806
			c-17.57,0-32.29,12.171-36.209,28.541c-6.032-4.207-13.362-6.681-21.273-6.681c-20.569,0-37.243,16.674-37.243,37.242
			c0,6.295,1.568,12.222,4.325,17.421C198.474,492.129,189,505.415,189,520.918c0,20.025,15.806,36.353,35.623,37.201v0.041h186.213
			c20.568,0,37.242-16.674,37.242-37.242C448.078,501.815,433.693,486.081,415.166,483.934z"/>
	</g>
	<g>
		<path fill="none" stroke="#231F20" stroke-width="4" stroke-linecap="round" stroke-miterlimit="10" d="M415.166,483.934
			c-2.698-16.044-15.649-28.599-31.887-30.702c0.011-0.377,0.029-0.752,0.029-1.132c0-20.568-16.674-37.242-37.242-37.242
			c-6.753,0-13.08,1.806-18.541,4.948c-6.63-6.087-15.469-9.806-25.179-9.806c-17.57,0-32.29,12.171-36.209,28.541
			c-6.032-4.207-13.362-6.681-21.273-6.681c-20.569,0-37.243,16.674-37.243,37.242c0,6.295,1.568,12.222,4.325,17.421
			C198.474,492.129,189,505.415,189,520.918c0,20.025,15.806,36.353,35.623,37.201v0.041h186.213
			c20.568,0,37.242-16.674,37.242-37.242C448.078,501.815,433.693,486.081,415.166,483.934z"/>
	</g>
</g>
<g>
	<path fill="#FFFFFF" d="M343.862,459.725c4.14-3.705,5.956-5.738,5.956-8.716c0-3.487-2.905-5.229-7.408-5.229
		c-3.705,0-5.884,0.944-8.571,2.469c-0.799,0.436-1.307,0.799-2.179,0.799c-1.526,0-2.761-1.089-2.761-2.688
		c0-1.598,1.308-2.615,2.905-3.487c3.342-1.888,7.264-2.832,10.895-2.832c8.281,0,13.511,3.704,13.511,10.677
		c0,4.431-1.598,6.973-6.755,11.767c-4.431,4.067-5.157,4.94-5.157,9.37v1.96c0,1.745-1.38,3.198-3.196,3.198
		c-1.816,0-3.195-1.453-3.195-3.198v-2.25C337.906,465.753,339.649,463.429,343.862,459.725z M341.247,481.588
		c2.251,0,4.14,1.887,4.14,4.14c0,2.252-1.889,4.139-4.14,4.139s-4.14-1.887-4.14-4.139
		C337.107,483.475,338.996,481.588,341.247,481.588z"/>
</g>
<g>
	<path fill="#FFFFFF" d="M249.862,473.725c4.14-3.705,5.956-5.738,5.956-8.716c0-3.487-2.905-5.229-7.408-5.229
		c-3.705,0-5.884,0.944-8.571,2.469c-0.799,0.436-1.307,0.799-2.179,0.799c-1.526,0-2.761-1.089-2.761-2.688
		c0-1.598,1.308-2.615,2.905-3.487c3.342-1.888,7.264-2.832,10.895-2.832c8.281,0,13.511,3.704,13.511,10.677
		c0,4.431-1.598,6.973-6.755,11.767c-4.431,4.067-5.157,4.94-5.157,9.37v1.96c0,1.745-1.38,3.198-3.196,3.198
		c-1.816,0-3.195-1.453-3.195-3.198v-2.25C243.906,479.753,245.649,477.429,249.862,473.725z M247.247,495.588
		c2.251,0,4.14,1.887,4.14,4.14c0,2.252-1.889,4.139-4.14,4.139s-4.14-1.887-4.14-4.139
		C243.107,497.475,244.996,495.588,247.247,495.588z"/>
</g>
<g>
	<path fill="#FFFFFF" d="M299.862,513.724c4.14-3.704,5.956-5.737,5.956-8.716c0-3.487-2.905-5.229-7.408-5.229
		c-3.705,0-5.884,0.944-8.571,2.469c-0.799,0.436-1.307,0.799-2.179,0.799c-1.526,0-2.761-1.089-2.761-2.688
		c0-1.598,1.308-2.615,2.905-3.487c3.342-1.888,7.264-2.832,10.895-2.832c8.281,0,13.511,3.704,13.511,10.677
		c0,4.431-1.598,6.974-6.755,11.767c-4.431,4.068-5.157,4.939-5.157,9.369v1.961c0,1.746-1.38,3.197-3.196,3.197
		c-1.816,0-3.195-1.451-3.195-3.197v-2.25C293.906,519.753,295.649,517.429,299.862,513.724z M297.247,535.587
		c2.251,0,4.14,1.887,4.14,4.141c0,2.252-1.889,4.139-4.14,4.139s-4.14-1.887-4.14-4.139
		C293.107,537.474,294.996,535.587,297.247,535.587z"/>
</g>
<g>
	<path fill="#FFFFFF" d="M383.862,513.724c4.14-3.704,5.956-5.737,5.956-8.716c0-3.487-2.905-5.229-7.408-5.229
		c-3.705,0-5.884,0.944-8.571,2.469c-0.799,0.436-1.307,0.799-2.179,0.799c-1.526,0-2.761-1.089-2.761-2.688
		c0-1.598,1.308-2.615,2.905-3.487c3.342-1.888,7.264-2.832,10.895-2.832c8.281,0,13.511,3.704,13.511,10.677
		c0,4.431-1.598,6.974-6.755,11.767c-4.431,4.068-5.157,4.939-5.157,9.369v1.961c0,1.746-1.38,3.197-3.196,3.197
		c-1.816,0-3.195-1.451-3.195-3.197v-2.25C377.906,519.753,379.649,517.429,383.862,513.724z M381.247,535.587
		c2.251,0,4.14,1.887,4.14,4.141c0,2.252-1.889,4.139-4.14,4.139s-4.14-1.887-4.14-4.139
		C377.107,537.474,378.996,535.587,381.247,535.587z"/>
</g>
<rect x="174.113" y="654.582" fill="none" width="299.983" height="95.996"/>
<text transform="matrix(1 0 0 1 315.7056 669.3023)"><tspan x="0" y="0" fill="#231F20" font-family="'CenturyGothic-Bold'" font-size="20">1. </tspan><tspan x="-65" y="24" fill="#231F20" font-family="'CenturyGothic-Bold'" font-size="20">Idea collection </tspan><tspan x="-71.494" y="48" fill="#231F20" font-family="'CenturyGothic'" font-size="20">open innovation</tspan></text>
<rect x="623.592" y="654.582" fill="none" width="299.983" height="95.996"/>
<text transform="matrix(1 0 0 1 765.1841 669.3023)"><tspan x="0" y="0" fill="#231F20" font-family="'CenturyGothic-Bold'" font-size="20">2. </tspan><tspan x="-82.006" y="24" fill="#231F20" font-family="'CenturyGothic-Bold'" font-size="20">Idea development </tspan><tspan x="-71.494" y="48" fill="#231F20" font-family="'CenturyGothic'" font-size="20">open innovation</tspan></text>
<rect x="1034.074" y="654.582" fill="none" width="299.983" height="95.996"/>
<text transform="matrix(1 0 0 1 1175.6665 669.3023)"><tspan x="0" y="0" fill="#231F20" font-family="'CenturyGothic-Bold'" font-size="20">3.</tspan><tspan x="-68.604" y="24" fill="#231F20" font-family="'CenturyGothic-Bold'" font-size="20">Idea auctioning </tspan></text>
</svg>
